<svg width="230" height="77" viewBox="0 0 230 77" fill="none" xmlns="http://www.w3.org/2000/svg">
<path d="M90.6446 7.36768H93.1337V30.8997H90.6446V7.36768Z" fill="#4D4D4D"/>
<path d="M99.7216 29.5063C98.5987 28.3977 98.0408 26.9242 98.0408 25.086V20.2795C98.0408 18.3554 98.5987 16.8033 99.7216 15.6231C100.845 14.443 102.311 13.8564 104.128 13.8564H106.881C108.605 13.8564 109.993 14.3357 111.051 15.3013C112.103 16.2669 112.632 17.5329 112.632 19.0993H110.279C110.279 18.1766 109.971 17.4327 109.356 16.8605C108.741 16.2883 107.919 16.0022 106.889 16.0022H104.135C103.033 16.0022 102.154 16.3956 101.481 17.1753C100.809 17.962 100.473 18.992 100.473 20.2652V25.0717C100.473 26.259 100.816 27.2103 101.495 27.9256C102.182 28.6409 103.069 28.9985 104.171 28.9985H106.924C107.976 28.9985 108.827 28.6266 109.463 27.8898C110.1 27.1531 110.422 26.1661 110.422 24.9287H112.775C112.775 26.7883 112.239 28.2904 111.159 29.4348C110.079 30.5792 108.67 31.1514 106.924 31.1514H104.171C102.332 31.1514 100.852 30.5935 99.7359 29.4849L99.7216 29.5063Z" fill="#4D4D4D"/>
<path d="M117.776 29.5063C116.632 28.3977 116.06 26.9242 116.06 25.086V20.2795C116.06 18.3554 116.632 16.8033 117.776 15.6231C118.921 14.443 120.43 13.8564 122.311 13.8564H125.065C126.86 13.8564 128.305 14.4287 129.399 15.5731C130.494 16.7175 131.044 18.2267 131.044 20.1078V23.069H118.47V25.086C118.47 26.2519 118.821 27.196 119.529 27.9256C120.237 28.6552 121.16 29.0199 122.304 29.0199H124.857C125.98 29.0199 126.889 28.7124 127.583 28.0973C128.276 27.4821 128.627 26.6596 128.627 25.6296H130.98C130.98 27.289 130.422 28.6266 129.299 29.6494C128.176 30.6722 126.703 31.18 124.865 31.18H122.311C120.43 31.18 118.914 30.6221 117.776 29.5135V29.5063ZM128.634 20.9876V20.115C128.634 18.8847 128.312 17.8905 127.661 17.1395C127.01 16.3885 126.152 16.0165 125.072 16.0165H122.318C121.174 16.0165 120.251 16.4099 119.543 17.1896C118.835 17.9763 118.484 19.0063 118.484 20.2795V20.9876H128.634Z" fill="#4D4D4D"/>
<path d="M137.86 29.7556C137.087 28.9974 136.701 27.7386 136.701 25.9933V16.2801H133.74V14.1272H136.701V9.04883H139.119V14.1272H143.489V16.2801H139.119V25.9933C139.119 26.9804 139.312 27.6885 139.705 28.1105C140.098 28.5396 140.749 28.7471 141.672 28.7471H143.489V30.9H141.672C139.898 30.9 138.632 30.5209 137.86 29.7556Z" fill="#4D4D4D"/>
<path d="M148.432 29.5063C147.288 28.3977 146.715 26.9242 146.715 25.086V20.2795C146.715 18.3554 147.288 16.8033 148.432 15.6231C149.576 14.443 151.086 13.8564 152.967 13.8564H155.72C157.516 13.8564 158.961 14.4287 160.055 15.5731C161.149 16.7175 161.7 18.2267 161.7 20.1078V23.069H149.126V25.086C149.126 26.2519 149.476 27.196 150.184 27.9256C150.892 28.6552 151.815 29.0199 152.96 29.0199H155.513C156.636 29.0199 157.544 28.7124 158.238 28.0973C158.932 27.4821 159.282 26.6596 159.282 25.6296H161.636C161.636 27.289 161.078 28.6266 159.955 29.6494C158.832 30.6722 157.358 31.18 155.52 31.18H152.967C151.086 31.18 149.569 30.6221 148.432 29.5135V29.5063ZM159.29 20.9876V20.115C159.29 18.8847 158.968 17.8905 158.317 17.1395C157.666 16.3885 156.808 16.0165 155.728 16.0165H152.974C151.829 16.0165 150.907 16.4099 150.199 17.1896C149.491 17.9763 149.14 19.0063 149.14 20.2795V20.9876H159.29Z" fill="#4D4D4D"/>
<path d="M166.864 29.8926C165.891 29.0414 165.405 27.897 165.405 26.4665V25.3936C165.405 23.9845 165.913 22.8473 166.914 21.9961C167.923 21.1449 169.253 20.7158 170.912 20.7158H173.065C173.802 20.7158 174.567 20.8302 175.354 21.052C176.141 21.2737 176.813 21.5812 177.371 21.9603V19.1708C177.371 18.2267 177.078 17.4614 176.499 16.8677C175.919 16.274 175.14 15.9736 174.181 15.9736H171.492C170.526 15.9736 169.754 16.1953 169.174 16.646C168.588 17.0966 168.302 17.6902 168.302 18.427H165.884C165.884 17.0608 166.399 15.9593 167.429 15.1153C168.459 14.2784 169.818 13.8564 171.499 13.8564H174.188C175.848 13.8564 177.185 14.3428 178.208 15.3156C179.231 16.2883 179.739 17.5758 179.739 19.1637V30.8939H177.45V28.5407C176.935 29.349 176.255 29.9855 175.419 30.4576C174.582 30.9297 173.709 31.1657 172.815 31.1657H170.798C169.16 31.1657 167.858 30.7437 166.878 29.8854L166.864 29.8926ZM172.865 29.0557C173.916 29.0557 174.861 28.7338 175.69 28.083C176.52 27.4321 177.078 26.5666 177.371 25.4937V24.2492C176.921 23.8272 176.298 23.4838 175.504 23.2263C174.71 22.9689 173.895 22.8401 173.065 22.8401H170.912C169.99 22.8401 169.246 23.0761 168.674 23.5482C168.101 24.0203 167.815 24.6354 167.815 25.3936V26.4665C167.815 27.2533 168.087 27.8755 168.624 28.3476C169.16 28.8197 169.875 29.0557 170.777 29.0557H172.858H172.865Z" fill="#4D4D4D"/>
<path d="M89.9873 64.1308C88.5997 62.7503 87.9059 60.8334 87.9059 58.3658H92.4764C92.4764 59.5317 92.7768 60.4472 93.3705 61.1052C93.9641 61.7633 94.7867 62.0994 95.8381 62.0994H99.5718C100.559 62.0994 101.36 61.892 101.975 61.4772C102.59 61.0623 102.898 60.5116 102.898 59.8106V58.6662C102.898 57.5647 102.089 56.8852 100.48 56.6134L94.2932 55.5691C92.2761 55.233 90.7455 54.5892 89.7012 53.6379C88.6569 52.6866 88.1348 51.4707 88.1348 49.9901V48.109C88.1348 46.9216 88.4566 45.8774 89.0932 44.969C89.7298 44.0606 90.6382 43.3596 91.8183 42.8661C92.9985 42.3726 94.3575 42.1294 95.9025 42.1294H99.7005C101.16 42.1294 102.447 42.4298 103.563 43.0378C104.686 43.6457 105.551 44.4898 106.166 45.5769C106.782 46.6641 107.089 47.923 107.089 49.3607H102.519C102.519 48.4165 102.261 47.6655 101.746 47.0933C101.231 46.5211 100.545 46.235 99.6934 46.235H95.8953C94.9512 46.235 94.2002 46.4353 93.628 46.843C93.0557 47.2435 92.7696 47.7871 92.7696 48.4594V49.3678C92.7696 50.4908 93.5421 51.1846 95.0871 51.4492L101.238 52.5221C103.277 52.8797 104.836 53.5163 105.909 54.4247C106.982 55.3331 107.525 56.5061 107.525 57.9366V60.1539C107.525 61.3413 107.196 62.3927 106.531 63.3154C105.873 64.2381 104.943 64.9462 103.756 65.4469C102.569 65.9547 101.188 66.205 99.6218 66.205H95.7594C93.2918 66.205 91.3677 65.5184 89.9801 64.1379L89.9873 64.1308Z" fill="#4D4D4D"/>
<path d="M113.368 65.3744C112.281 64.8237 111.437 64.0441 110.851 63.0355C110.257 62.027 109.957 60.8611 109.957 59.5379V55.604C109.957 54.2808 110.257 53.1077 110.865 52.0921C111.473 51.0692 112.317 50.2825 113.404 49.7246C114.491 49.1667 115.743 48.8877 117.152 48.8877H120.178C121.587 48.8877 122.838 49.1667 123.926 49.7246C125.013 50.2825 125.857 51.0764 126.465 52.0921C127.073 53.1149 127.373 54.2808 127.373 55.604V59.5379C127.373 60.8611 127.073 62.027 126.465 63.0355C125.857 64.0441 125.013 64.8237 123.926 65.3744C122.838 65.9252 121.58 66.197 120.142 66.197H117.116C115.707 66.197 114.456 65.9252 113.368 65.3744ZM120.07 62.2631C120.9 62.2631 121.558 61.9769 122.052 61.4047C122.545 60.8325 122.788 60.0887 122.788 59.1731V55.9116C122.788 54.996 122.538 54.245 122.052 53.6728C121.558 53.1006 120.907 52.8145 120.099 52.8145H117.209C116.401 52.8145 115.75 53.1006 115.257 53.6728C114.763 54.245 114.52 54.9889 114.52 55.9116V59.1731C114.52 60.0958 114.763 60.8397 115.257 61.4047C115.75 61.9769 116.387 62.2631 117.174 62.2631H120.063H120.07Z" fill="#4D4D4D"/>
<path d="M131.937 53.0506H129.047V49.1524H131.937V48.0438C131.937 46.227 132.516 44.8108 133.668 43.788C134.819 42.7652 136.429 42.2573 138.489 42.2573H140.906V46.1555H138.553C137.838 46.1555 137.316 46.3128 136.987 46.6276C136.665 46.9423 136.5 47.4358 136.5 48.1081V49.1524H140.534V53.0506H136.5V65.9253H131.93V53.0506H131.937Z" fill="#4D4D4D"/>
<path d="M146.121 64.5807C145.198 63.6866 144.74 62.2919 144.74 60.4107V53.0507H141.779V49.1526H144.869V44.0742H149.304V49.1526H153.674V53.0507H149.304V60.2105C149.304 60.8399 149.418 61.2977 149.654 61.5909C149.89 61.8842 150.262 62.0272 150.777 62.0272H153.667V65.9254H150.441C148.467 65.9254 147.022 65.4748 146.106 64.5807H146.121Z" fill="#4D4D4D"/>
<path d="M158.831 63.3078L155.433 49.1528H160.175L162.228 59.8102H162.293L165.955 49.5605H167.736C168.251 49.5605 168.666 49.675 168.98 49.8967C169.295 50.1184 169.538 50.4689 169.717 50.941L172.843 59.8174H172.907L174.924 49.16H179.666L176.34 63.315C175.94 65.0602 174.974 65.94 173.451 65.94H171.369L167.636 55.3184L163.773 65.94H161.72C160.218 65.94 159.253 65.0674 158.831 63.315V63.3078Z" fill="#4D4D4D"/>
<path d="M182.764 64.8809C181.691 64.0083 181.147 62.8567 181.147 61.419V60.1745C181.147 58.7654 181.705 57.6282 182.828 56.7627C183.951 55.8972 185.424 55.4681 187.263 55.4681H189.315C189.895 55.4681 190.524 55.5468 191.196 55.7041C191.869 55.8615 192.484 56.0761 193.042 56.3407V54.5955C193.042 54.0376 192.856 53.5798 192.484 53.2365C192.112 52.886 191.626 52.7143 191.025 52.7143H188.135C187.506 52.7143 187.005 52.8574 186.626 53.1506C186.247 53.4439 186.054 53.8373 186.054 54.3308H181.619C181.619 52.6929 182.22 51.3768 183.414 50.3826C184.616 49.3884 186.19 48.8877 188.135 48.8877H191.025C192.999 48.8877 194.587 49.4098 195.796 50.447C197.004 51.4912 197.612 52.8717 197.612 54.5955V65.9252H193.378V63.9081C192.842 64.602 192.176 65.1599 191.397 65.5747C190.61 65.9896 189.838 66.197 189.079 66.197H186.998C185.253 66.197 183.836 65.7607 182.764 64.8881V64.8809ZM189.423 62.6994C190.252 62.6994 190.989 62.4848 191.64 62.0628C192.291 61.6408 192.763 61.0686 193.049 60.3462V59.7739C192.691 59.5021 192.191 59.2947 191.554 59.1374C190.918 58.98 190.238 58.9013 189.523 58.9013H187.406C186.869 58.9013 186.433 59.0372 186.097 59.3019C185.761 59.5737 185.589 59.9313 185.589 60.3748V61.2474C185.589 61.6765 185.775 62.0199 186.147 62.2917C186.519 62.5635 187.005 62.6922 187.606 62.6922H189.423V62.6994Z" fill="#4D4D4D"/>
<path d="M201.318 49.1518H205.552V51.3047C205.974 50.6538 206.589 50.1245 207.383 49.7097C208.177 49.2948 209.014 49.0874 209.887 49.0874H212.175V53.0571H209.887C208.699 53.0571 207.734 53.4147 206.997 54.13C206.26 54.8452 205.888 55.7679 205.888 56.8837V65.9246H201.318V49.1518Z" fill="#4D4D4D"/>
<path d="M216.431 65.403C215.344 64.8737 214.5 64.137 213.892 63.1857C213.284 62.2344 212.984 61.1401 212.984 59.9098V55.5754C212.984 54.2521 213.284 53.0863 213.892 52.0778C214.5 51.0692 215.344 50.2825 216.431 49.7246C217.519 49.1667 218.77 48.8877 220.179 48.8877H222.869C225.022 48.8877 226.745 49.4957 228.047 50.7045C229.349 51.9132 230 53.5297 230 55.5468V59.1088H217.562V59.917C217.562 60.6537 217.798 61.2545 218.27 61.698C218.742 62.1486 219.378 62.3703 220.186 62.3703H222.812C223.598 62.3703 224.228 62.1987 224.714 61.8482C225.193 61.4977 225.436 61.0471 225.436 60.4892H229.943C229.943 61.6122 229.642 62.6064 229.034 63.479C228.426 64.3516 227.582 65.024 226.495 65.496C225.408 65.9681 224.156 66.2041 222.747 66.2041H220.194C218.785 66.2041 217.533 65.9395 216.446 65.4173L216.431 65.403ZM225.487 55.8114V55.5396C225.487 54.667 225.251 53.966 224.778 53.4367C224.306 52.9075 223.677 52.65 222.897 52.65H220.172C219.364 52.65 218.713 52.9289 218.22 53.4868C217.726 54.0447 217.483 54.7886 217.483 55.7041V55.8043H225.487V55.8114Z" fill="#4D4D4D"/>
<path d="M10.1861 28.1449L0 38.3311L10.1861 48.5172L20.3722 38.3311L10.1861 28.1449Z" fill="#EA2323"/>
<path d="M66.101 28.1489L55.9149 38.335L66.101 48.5211L76.2871 38.335L66.101 28.1489Z" fill="#EA2323"/>
<path d="M34.7436 24.0298L38.4779 20.3208L52.5677 34.315L62.7939 24.1581L38.4779 0L14.1619 24.151L21.214 31.1552L42.2194 52.0466L38.4779 55.7627L24.3953 41.7757L14.1547 51.9183L38.4851 76.0764L62.8083 51.9111L34.7508 24.0298H34.7436ZM38.4779 69.0151L21.2642 51.9254L24.3881 48.8298L38.4779 62.824L49.3289 52.0466L28.3307 31.1695L21.2642 24.151L38.4707 7.06128L55.6772 24.1581L52.5605 27.2537L38.4707 13.2595L27.6269 24.0298L55.6916 51.9111L38.4779 69.0151Z" fill="#EA2323"/>
</svg>
