<svg width="158" height="57" viewBox="0 0 158 57" fill="none" xmlns="http://www.w3.org/2000/svg">
<path d="M8.13473 21.0781L0.527344 28.7065L8.13473 36.335L15.7421 28.7065L8.13473 21.0781Z" fill="#EA2323"/>
<path d="M49.8943 21.0806L42.2871 28.7091L49.8943 36.3374L57.5017 28.7091L49.8943 21.0806Z" fill="#EA2323"/>
<path d="M26.4761 17.9961L29.2651 15.2185L39.7877 25.6987L47.4253 18.0923L29.2651 0L11.105 18.0869L16.3717 23.3324L32.0594 38.978L29.2651 41.7612L18.7477 31.286L11.0996 38.882L29.2703 56.9741L47.436 38.8768L26.4814 17.9961H26.4761ZM29.2651 51.6859L16.4093 38.8873L18.7424 36.569L29.2651 47.0494L37.369 38.978L21.6867 23.3431L16.4093 18.0869L29.2596 5.2882L42.1101 18.0923L39.7826 20.4105L29.2596 9.93008L21.1611 17.9961L42.1208 38.8768L29.2651 51.6859Z" fill="#EA2323"/>
<rect x="68.9766" y="17.1143" width="12.6614" height="2.63779" transform="rotate(90 68.9766 17.1143)" fill="white"/>
<rect x="70.3379" y="17.1138" width="12.3097" height="2.63779" fill="white"/>
<rect x="77.7246" y="17.4653" width="12.3097" height="2.63779" transform="rotate(90 77.7246 17.4653)" fill="white"/>
<path d="M85.1116 28.6793C84.3784 27.9496 84.0117 26.9368 84.0117 25.6329H86.4272C86.4272 26.2488 86.5858 26.7327 86.8996 27.0803C87.2131 27.4282 87.6479 27.6058 88.2034 27.6058H90.1766C90.6982 27.6058 91.1215 27.4961 91.4466 27.2771C91.7717 27.0576 91.9342 26.7668 91.9342 26.3963V25.7915C91.9342 25.2094 91.507 24.8504 90.6566 24.7066L87.3871 24.1548C86.3211 23.9771 85.5123 23.6372 84.9605 23.1342C84.4086 22.6317 84.1326 21.9889 84.1326 21.2067V20.2128C84.1326 19.5853 84.3028 19.0334 84.6392 18.5531C84.9755 18.0733 85.4555 17.7027 86.0794 17.4421C86.703 17.1813 87.4212 17.0527 88.2375 17.0527H90.2445C91.0156 17.0527 91.6961 17.2113 92.2856 17.5328C92.8791 17.854 93.3366 18.3 93.6615 18.8746C93.9866 19.4489 94.1491 20.1144 94.1491 20.8741H91.7338C91.7338 20.3752 91.5979 19.9783 91.3255 19.6759C91.0536 19.3735 90.6905 19.2224 90.2407 19.2224H88.2339C87.735 19.2224 87.338 19.3281 87.0357 19.5435C86.7333 19.7552 86.5822 20.0424 86.5822 20.3977V20.8778C86.5822 21.4712 86.9902 21.8379 87.8065 21.9776L91.0572 22.5449C92.1345 22.7337 92.9586 23.0702 93.5254 23.5502C94.0925 24.03 94.3797 24.6501 94.3797 25.4059V26.5778C94.3797 27.2051 94.2059 27.7608 93.8542 28.2483C93.5066 28.7359 93.0151 29.1103 92.3879 29.3748C91.7604 29.6431 91.0308 29.7753 90.2032 29.7753H88.1618C86.858 29.7753 85.8413 29.4125 85.1079 28.683L85.1116 28.6793Z" fill="white"/>
<rect x="103.949" y="17.1138" width="12.6081" height="2.62276" transform="rotate(90 103.949 17.1138)" fill="white"/>
<path d="M110.856 17.114L103.342 26.2112L101.328 24.5288L107.503 17.1135L110.856 17.114Z" fill="white"/>
<path d="M110.856 29.7136L103.342 20.6164L101.328 22.2988L107.503 29.7141L110.856 29.7136Z" fill="white"/>
<path d="M114.285 29.4033C113.711 29.1123 113.265 28.7004 112.955 28.1672C112.641 27.6344 112.482 27.0182 112.482 26.3189V24.2401C112.482 23.5408 112.641 22.921 112.962 22.3844C113.284 21.8437 113.73 21.4282 114.304 21.1333C114.879 20.8384 115.54 20.6909 116.285 20.6909H117.884C118.628 20.6909 119.29 20.8384 119.864 21.1333C120.439 21.4282 120.885 21.8476 121.206 22.3844C121.528 22.9249 121.686 23.5408 121.686 24.2401V26.3189C121.686 27.0182 121.528 27.6344 121.206 28.1672C120.885 28.7004 120.439 29.1123 119.864 29.4033C119.29 29.6943 118.625 29.8379 117.865 29.8379H116.266C115.522 29.8379 114.86 29.6943 114.285 29.4033ZM117.827 27.7591C118.266 27.7591 118.613 27.6078 118.874 27.3056C119.135 27.0032 119.263 26.61 119.263 26.1263V24.4028C119.263 23.9189 119.131 23.522 118.874 23.2196C118.613 22.9174 118.269 22.7661 117.842 22.7661H116.315C115.888 22.7661 115.544 22.9174 115.283 23.2196C115.023 23.522 114.894 23.9152 114.894 24.4028V26.1263C114.894 26.6138 115.023 27.0069 115.283 27.3056C115.544 27.6078 115.881 27.7591 116.296 27.7591H117.823H117.827Z" fill="white"/>
<path d="M123.277 20.9745H125.515V22.1123C125.738 21.7683 126.063 21.4886 126.483 21.2694C126.902 21.0502 127.344 20.9404 127.805 20.9404H129.015V23.0383H127.805C127.178 23.0383 126.668 23.2273 126.279 23.6054C125.889 23.9832 125.693 24.4708 125.693 25.0606V29.838H123.277V20.9745Z" fill="white"/>
<path d="M132.425 29.4151C131.851 29.1354 131.405 28.746 131.084 28.2433C130.762 27.7407 130.604 27.1623 130.604 26.512V24.2217C130.604 23.5224 130.762 22.9063 131.084 22.3733C131.405 21.8403 131.851 21.4247 132.425 21.1298C133 20.835 133.661 20.6875 134.406 20.6875H135.827C136.965 20.6875 137.876 21.0088 138.564 21.6476C139.252 22.2863 139.596 23.1405 139.596 24.2065V26.089H133.023V26.5159C133.023 26.9053 133.147 27.2227 133.397 27.4572C133.646 27.6953 133.983 27.8123 134.41 27.8123H135.797C136.213 27.8123 136.545 27.7216 136.802 27.5365C137.056 27.3513 137.184 27.1132 137.184 26.8183H139.565C139.565 27.4117 139.407 27.9372 139.085 28.3982C138.764 28.8594 138.318 29.2147 137.744 29.4642C137.169 29.7136 136.508 29.8384 135.763 29.8384H134.414C133.669 29.8384 133.007 29.6984 132.433 29.4226L132.425 29.4151ZM137.211 24.3464V24.2029C137.211 23.7414 137.086 23.3711 136.837 23.0914C136.587 22.8118 136.254 22.6757 135.842 22.6757H134.402C133.975 22.6757 133.631 22.8231 133.37 23.118C133.11 23.4129 132.981 23.8059 132.981 24.2896V24.3426H137.211V24.3464Z" fill="white"/>
<path d="M142.042 29.1425C141.475 28.6815 141.188 28.0729 141.188 27.3131V26.6554C141.188 25.9109 141.482 25.31 142.076 24.8526C142.669 24.3951 143.448 24.1683 144.419 24.1683H145.504C145.81 24.1683 146.143 24.2099 146.498 24.2931C146.853 24.3762 147.178 24.4896 147.473 24.6295V23.7074C147.473 23.4125 147.375 23.1705 147.178 22.989C146.982 22.8038 146.725 22.7132 146.407 22.7132H144.88C144.547 22.7132 144.283 22.7888 144.083 22.9438C143.882 23.0985 143.78 23.3066 143.78 23.5674H141.437C141.437 22.7018 141.754 22.0061 142.386 21.4809C143.021 20.9556 143.852 20.6909 144.88 20.6909H146.407C147.451 20.6909 148.29 20.9667 148.928 21.5149C149.567 22.0668 149.889 22.7963 149.889 23.7074V29.6943H147.651V28.6286C147.367 28.995 147.016 29.2899 146.604 29.5092C146.188 29.7284 145.78 29.8379 145.379 29.8379H144.279C143.357 29.8379 142.609 29.6073 142.042 29.1464V29.1425ZM145.561 27.9897C145.999 27.9897 146.388 27.8763 146.732 27.6532C147.076 27.4304 147.326 27.1277 147.477 26.7463V26.4439C147.288 26.3001 147.023 26.1906 146.687 26.1074C146.351 26.0243 145.991 25.9825 145.614 25.9825H144.495C144.211 25.9825 143.981 26.0545 143.803 26.1944C143.626 26.338 143.535 26.5268 143.535 26.7613V27.2223C143.535 27.4492 143.633 27.6307 143.83 27.7741C144.026 27.9177 144.283 27.9861 144.6 27.9861H145.561V27.9897Z" fill="white"/>
<path d="M69.646 39.5998C69.646 40.7283 68.8803 41.1958 67.9453 41.1958C67.0022 41.1958 66.2445 40.7283 66.2445 39.5998V37.6975C66.2445 36.5691 67.0022 36.1016 67.9453 36.1016C68.8803 36.1016 69.646 36.5691 69.646 37.6975V39.5998ZM69.0495 39.5514V37.7459C69.0495 36.964 68.574 36.6336 67.9453 36.6336C67.3165 36.6336 66.8329 36.964 66.8329 37.7459V39.5514C66.8329 40.3333 67.3165 40.6638 67.9453 40.6638C68.574 40.6638 69.0495 40.3333 69.0495 39.5514ZM71.4757 42.6789L71.0163 42.832C70.9437 42.8562 70.8873 42.824 70.8873 42.7514V35.6986H71.4757V38.294H72.6687V38.8099H71.4757V42.6789ZM79.0853 42.6789L78.6258 42.832C78.5533 42.8562 78.4969 42.824 78.4969 42.7514V35.6986H79.0853V42.6789ZM77.1105 39.5998C77.1105 40.7283 76.3447 41.1958 75.4016 41.1958C74.4586 41.1958 73.6928 40.7283 73.6928 39.5998V37.6975C73.6928 36.5691 74.4586 36.1016 75.4016 36.1016C76.3447 36.1016 77.1105 36.5691 77.1105 37.6975V39.5998ZM76.522 39.5514V37.7459C76.522 36.964 76.0384 36.6336 75.4016 36.6336C74.7649 36.6336 74.2813 36.964 74.2813 37.7459V39.5514C74.2813 40.3333 74.7649 40.6638 75.4016 40.6638C76.0384 40.6638 76.522 40.3333 76.522 39.5514ZM86.7029 39.7207L86.316 40.1157L83.8898 37.8991L81.4636 40.1157L81.0767 39.7207L83.5835 37.4396V36.0371H84.1961V37.4396L86.7029 39.7207ZM87.1381 41.9534H80.6414V41.4295H87.1381V41.9534ZM93.8207 42.6789L93.3613 42.832C93.2887 42.8562 93.2323 42.824 93.2323 42.7514V35.6986H93.8207V42.6789ZM92.5794 41.1958H88.4605V36.2305H91.7976V36.7464H89.057V38.3827H91.7573V38.8744H89.057V40.6799H92.5794V41.1958ZM103.131 39.6804L102.744 40.0754L100.318 37.8588L97.8914 40.0754L97.5045 39.6804L100.011 37.3993V35.9968H100.624V37.3993L103.131 39.6804ZM103.566 42.0341H97.0693V41.5101H100.019V39.7691H100.616V41.5101H103.566V42.0341ZM110.345 39.89H105.025V39.3741H106.017V37.1091H106.613V39.3741H108.757V37.1091H109.354V39.3741H110.345V39.89ZM110.934 41.9534H104.437V41.4295H110.934V41.9534ZM110.249 36.7787H105.122V36.2628H110.249V36.7787ZM117.487 40.2285H112.74V36.1983H117.407V36.7142H113.336V37.9474H117.366V38.4391H113.336V39.7207H117.487V40.2285ZM118.301 41.9534H111.805V41.4295H118.301V41.9534ZM122.638 37.4799C122.638 38.1489 122.252 38.8905 121.188 38.8905H120.873C119.809 38.8905 119.422 38.1489 119.422 37.4799C119.422 36.8109 119.809 36.0613 120.873 36.0613H121.188C122.252 36.0613 122.638 36.8109 122.638 37.4799ZM123.839 42.3645L123.388 42.5096C123.307 42.5338 123.251 42.5016 123.251 42.429V41.2038H121.953V40.6799H123.251V35.8195H123.839V42.3645ZM125.177 42.6869L124.726 42.832C124.654 42.8562 124.589 42.824 124.589 42.7514V35.6986H125.177V42.6869ZM121.252 42.3565L120.793 42.5096C120.712 42.5338 120.656 42.5016 120.656 42.429V39.9948H119.1V39.4789H122.832V39.9948H121.252V42.3565ZM122.042 37.4799C122.042 36.9157 121.703 36.5771 121.163 36.5771H120.897C120.365 36.5771 120.019 36.9157 120.019 37.4799C120.019 38.0441 120.365 38.3827 120.897 38.3827H121.163C121.703 38.3827 122.042 38.0441 122.042 37.4799ZM130.361 39.632C130.361 40.7605 129.595 41.228 128.66 41.228C127.717 41.228 126.959 40.7605 126.959 39.632V37.6975C126.959 36.5691 127.717 36.1016 128.66 36.1016C129.595 36.1016 130.361 36.5691 130.361 37.6975V38.3343H131.763V35.6986H132.352V42.6789L131.892 42.832C131.82 42.8562 131.763 42.824 131.763 42.7514V38.8502H130.361V39.632ZM129.764 39.5837V37.7459C129.764 36.964 129.289 36.6336 128.66 36.6336C128.031 36.6336 127.548 36.964 127.548 37.7459V39.5837C127.548 40.3655 128.031 40.696 128.66 40.696C129.289 40.696 129.764 40.3655 129.764 39.5837ZM141.162 40.3736L140.703 40.5268C140.63 40.5509 140.574 40.5187 140.574 40.4381V38.8582H136.414V38.3504H140.574V36.7384H136.455V36.2225H141.162V40.3736ZM142.097 42.0341H135.6V41.5101H138.131V39.8094H138.728V41.5101H142.097V42.0341ZM148.78 42.6789L148.32 42.832C148.248 42.8562 148.191 42.824 148.191 42.7514V35.6986H148.78V42.6789ZM147.538 41.1958H143.419V38.3827H146.12V36.7464H143.419V36.2305H146.724V38.8744H144.016V40.6799H147.538V41.1958ZM154.076 39.5998C154.076 40.7283 153.31 41.1958 152.375 41.1958C151.432 41.1958 150.674 40.7283 150.674 39.5998V37.6975C150.674 36.5691 151.432 36.1016 152.375 36.1016C153.31 36.1016 154.076 36.5691 154.076 37.6975V39.5998ZM153.479 39.5514V37.7459C153.479 36.964 153.004 36.6336 152.375 36.6336C151.746 36.6336 151.263 36.964 151.263 37.7459V39.5514C151.263 40.3333 151.746 40.6638 152.375 40.6638C153.004 40.6638 153.479 40.3333 153.479 39.5514ZM155.906 42.6789L155.446 42.832C155.374 42.8562 155.317 42.824 155.317 42.7514V35.6986H155.906V38.294H157.098V38.8099H155.906V42.6789Z" fill="white"/>
</svg>
