<svg width="157" height="57" viewBox="0 0 157 57" fill="none" xmlns="http://www.w3.org/2000/svg">
<path d="M7.60738 21.0781L0 28.7065L7.60738 36.335L15.2148 28.7065L7.60738 21.0781Z" fill="#D1202C"/>
<path d="M49.367 21.0806L41.7598 28.7091L49.367 36.3374L56.9744 28.7091L49.367 21.0806Z" fill="#D1202C"/>
<path d="M25.9487 17.9961L28.7378 15.2185L39.2604 25.6987L46.8979 18.0923L28.7378 0L10.5776 18.0869L15.8444 23.3324L31.532 38.978L28.7378 41.7612L18.2204 31.286L10.5723 38.882L28.743 56.9741L46.9087 38.8768L25.9541 17.9961H25.9487ZM28.7378 51.6859L15.8819 38.8873L18.215 36.569L28.7378 47.0494L36.8417 38.978L21.1594 23.3431L15.8819 18.0869L28.7323 5.2882L41.5828 18.0923L39.2552 20.4105L28.7323 9.93008L20.6337 17.9961L41.5935 38.8768L28.7378 51.6859Z" fill="#D1202C"/>
<rect x="68.4492" y="17.1143" width="12.6614" height="2.63779" transform="rotate(90 68.4492 17.1143)" fill="white"/>
<rect x="69.8105" y="17.1138" width="12.3097" height="2.63779" fill="white"/>
<rect x="77.1973" y="17.4653" width="12.3097" height="2.63779" transform="rotate(90 77.1973 17.4653)" fill="white"/>
<path d="M84.5842 28.6793C83.8511 27.9496 83.4844 26.9368 83.4844 25.6329H85.8999C85.8999 26.2488 86.0585 26.7327 86.3722 27.0803C86.6857 27.4282 87.1206 27.6058 87.6761 27.6058H89.6493C90.1709 27.6058 90.5941 27.4961 90.9193 27.2771C91.2444 27.0576 91.4068 26.7668 91.4068 26.3963V25.7915C91.4068 25.2094 90.9797 24.8504 90.1293 24.7066L86.8598 24.1548C85.7938 23.9771 84.985 23.6372 84.4331 23.1342C83.8813 22.6317 83.6052 21.9889 83.6052 21.2067V20.2128C83.6052 19.5853 83.7754 19.0334 84.1119 18.5531C84.4481 18.0733 84.9282 17.7027 85.5521 17.4421C86.1757 17.1813 86.8939 17.0527 87.7102 17.0527H89.7172C90.4883 17.0527 91.1687 17.2113 91.7583 17.5328C92.3517 17.854 92.8093 18.3 93.1342 18.8746C93.4593 19.4489 93.6217 20.1144 93.6217 20.8741H91.2064C91.2064 20.3752 91.0706 19.9783 90.7982 19.6759C90.5262 19.3735 90.1632 19.2224 89.7133 19.2224H87.7065C87.2076 19.2224 86.8107 19.3281 86.5083 19.5435C86.2059 19.7552 86.0548 20.0424 86.0548 20.3977V20.8778C86.0548 21.4712 86.4629 21.8379 87.2792 21.9776L90.5298 22.5449C91.6072 22.7337 92.4312 23.0702 92.9981 23.5502C93.5651 24.03 93.8523 24.6501 93.8523 25.4059V26.5778C93.8523 27.2051 93.6785 27.7608 93.3268 28.2483C92.9792 28.7359 92.4878 29.1103 91.8605 29.3748C91.233 29.6431 90.5035 29.7753 89.6758 29.7753H87.6345C86.3306 29.7753 85.314 29.4125 84.5806 28.683L84.5842 28.6793Z" fill="white"/>
<rect x="103.422" y="17.1138" width="12.6081" height="2.62276" transform="rotate(90 103.422 17.1138)" fill="white"/>
<path d="M110.329 17.114L102.814 26.2112L100.8 24.5288L106.976 17.1135L110.329 17.114Z" fill="white"/>
<path d="M110.329 29.7136L102.814 20.6164L100.8 22.2988L106.976 29.7141L110.329 29.7136Z" fill="white"/>
<path d="M113.758 29.4033C113.184 29.1123 112.738 28.7004 112.428 28.1672C112.114 27.6344 111.955 27.0182 111.955 26.3189V24.2401C111.955 23.5408 112.114 22.921 112.435 22.3844C112.757 21.8437 113.203 21.4282 113.777 21.1333C114.352 20.8384 115.013 20.6909 115.758 20.6909H117.356C118.101 20.6909 118.762 20.8384 119.337 21.1333C119.912 21.4282 120.358 21.8476 120.679 22.3844C121 22.9249 121.159 23.5408 121.159 24.2401V26.3189C121.159 27.0182 121 27.6344 120.679 28.1672C120.358 28.7004 119.912 29.1123 119.337 29.4033C118.762 29.6943 118.097 29.8379 117.338 29.8379H115.739C114.994 29.8379 114.333 29.6943 113.758 29.4033ZM117.3 27.7591C117.738 27.7591 118.086 27.6078 118.347 27.3056C118.608 27.0032 118.736 26.61 118.736 26.1263V24.4028C118.736 23.9189 118.604 23.522 118.347 23.2196C118.086 22.9174 117.742 22.7661 117.315 22.7661H115.788C115.361 22.7661 115.017 22.9174 114.756 23.2196C114.495 23.522 114.367 23.9152 114.367 24.4028V26.1263C114.367 26.6138 114.495 27.0069 114.756 27.3056C115.017 27.6078 115.353 27.7591 115.769 27.7591H117.296H117.3Z" fill="white"/>
<path d="M122.75 20.9745H124.988V22.1123C125.211 21.7683 125.536 21.4886 125.955 21.2694C126.375 21.0502 126.817 20.9404 127.278 20.9404H128.488V23.0383H127.278C126.651 23.0383 126.14 23.2273 125.751 23.6054C125.362 23.9832 125.165 24.4708 125.165 25.0606V29.838H122.75V20.9745Z" fill="white"/>
<path d="M131.898 29.4151C131.323 29.1354 130.877 28.746 130.556 28.2433C130.235 27.7407 130.076 27.1623 130.076 26.512V24.2217C130.076 23.5224 130.235 22.9063 130.556 22.3733C130.877 21.8403 131.323 21.4247 131.898 21.1298C132.473 20.835 133.134 20.6875 133.879 20.6875H135.3C136.438 20.6875 137.349 21.0088 138.036 21.6476C138.724 22.2863 139.068 23.1405 139.068 24.2065V26.089H132.495V26.5159C132.495 26.9053 132.62 27.2227 132.87 27.4572C133.119 27.6953 133.455 27.8123 133.883 27.8123H135.27C135.685 27.8123 136.018 27.7216 136.275 27.5365C136.528 27.3513 136.657 27.1132 136.657 26.8183H139.038C139.038 27.4117 138.879 27.9372 138.558 28.3982C138.237 28.8594 137.791 29.2147 137.216 29.4642C136.642 29.7136 135.98 29.8384 135.235 29.8384H133.886C133.142 29.8384 132.48 29.6984 131.906 29.4226L131.898 29.4151ZM136.683 24.3464V24.2029C136.683 23.7414 136.559 23.3711 136.309 23.0914C136.06 22.8118 135.727 22.6757 135.315 22.6757H133.875C133.448 22.6757 133.104 22.8231 132.843 23.118C132.582 23.4129 132.454 23.8059 132.454 24.2896V24.3426H136.683V24.3464Z" fill="white"/>
<path d="M141.514 29.1425C140.947 28.6815 140.66 28.0729 140.66 27.3131V26.6554C140.66 25.9109 140.955 25.31 141.548 24.8526C142.142 24.3951 142.92 24.1683 143.892 24.1683H144.977C145.283 24.1683 145.615 24.2099 145.971 24.2931C146.326 24.3762 146.651 24.4896 146.946 24.6295V23.7074C146.946 23.4125 146.848 23.1705 146.651 22.989C146.454 22.8038 146.197 22.7132 145.88 22.7132H144.353C144.02 22.7132 143.756 22.7888 143.555 22.9438C143.355 23.0985 143.253 23.3066 143.253 23.5674H140.91C140.91 22.7018 141.227 22.0061 141.858 21.4809C142.493 20.9556 143.325 20.6909 144.353 20.6909H145.88C146.923 20.6909 147.762 20.9667 148.401 21.5149C149.04 22.0668 149.361 22.7963 149.361 23.7074V29.6943H147.124V28.6286C146.84 28.995 146.489 29.2899 146.076 29.5092C145.661 29.7284 145.252 29.8379 144.852 29.8379H143.752C142.83 29.8379 142.081 29.6073 141.514 29.1464V29.1425ZM145.033 27.9897C145.472 27.9897 145.861 27.8763 146.205 27.6532C146.549 27.4304 146.798 27.1277 146.95 26.7463V26.4439C146.761 26.3001 146.496 26.1906 146.16 26.1074C145.823 26.0243 145.464 25.9825 145.086 25.9825H143.967C143.684 25.9825 143.453 26.0545 143.276 26.1944C143.098 26.338 143.007 26.5268 143.007 26.7613V27.2223C143.007 27.4492 143.106 27.6307 143.302 27.7741C143.499 27.9177 143.756 27.9861 144.073 27.9861H145.033V27.9897Z" fill="white"/>
<path d="M69.1187 39.5998C69.1187 40.7283 68.3529 41.1958 67.4179 41.1958C66.4748 41.1958 65.7172 40.7283 65.7172 39.5998V37.6975C65.7172 36.5691 66.4748 36.1016 67.4179 36.1016C68.3529 36.1016 69.1187 36.5691 69.1187 37.6975V39.5998ZM68.5222 39.5514V37.7459C68.5222 36.964 68.0466 36.6336 67.4179 36.6336C66.7892 36.6336 66.3056 36.964 66.3056 37.7459V39.5514C66.3056 40.3333 66.7892 40.6638 67.4179 40.6638C68.0466 40.6638 68.5222 40.3333 68.5222 39.5514ZM70.9484 42.6789L70.4889 42.832C70.4164 42.8562 70.36 42.824 70.36 42.7514V35.6986H70.9484V38.294H72.1413V38.8099H70.9484V42.6789ZM78.5579 42.6789L78.0985 42.832C78.0259 42.8562 77.9695 42.824 77.9695 42.7514V35.6986H78.5579V42.6789ZM76.5831 39.5998C76.5831 40.7283 75.8174 41.1958 74.8743 41.1958C73.9312 41.1958 73.1655 40.7283 73.1655 39.5998V37.6975C73.1655 36.5691 73.9312 36.1016 74.8743 36.1016C75.8174 36.1016 76.5831 36.5691 76.5831 37.6975V39.5998ZM75.9947 39.5514V37.7459C75.9947 36.964 75.5111 36.6336 74.8743 36.6336C74.2375 36.6336 73.7539 36.964 73.7539 37.7459V39.5514C73.7539 40.3333 74.2375 40.6638 74.8743 40.6638C75.5111 40.6638 75.9947 40.3333 75.9947 39.5514ZM86.1755 39.7207L85.7886 40.1157L83.3624 37.8991L80.9362 40.1157L80.5493 39.7207L83.0561 37.4396V36.0371H83.6687V37.4396L86.1755 39.7207ZM86.6108 41.9534H80.1141V41.4295H86.6108V41.9534ZM93.2934 42.6789L92.8339 42.832C92.7614 42.8562 92.705 42.824 92.705 42.7514V35.6986H93.2934V42.6789ZM92.0521 41.1958H87.9332V36.2305H91.2702V36.7464H88.5297V38.3827H91.2299V38.8744H88.5297V40.6799H92.0521V41.1958ZM102.603 39.6804L102.216 40.0754L99.7903 37.8588L97.3641 40.0754L96.9772 39.6804L99.484 37.3993V35.9968H100.097V37.3993L102.603 39.6804ZM103.039 42.0341H96.5419V41.5101H99.492V39.7691H100.089V41.5101H103.039V42.0341ZM109.818 39.89H104.498V39.3741H105.489V37.1091H106.086V39.3741H108.23V37.1091H108.827V39.3741H109.818V39.89ZM110.406 41.9534H103.91V41.4295H110.406V41.9534ZM109.721 36.7787H104.595V36.2628H109.721V36.7787ZM116.96 40.2285H112.212V36.1983H116.879V36.7142H112.809V37.9474H116.839V38.4391H112.809V39.7207H116.96V40.2285ZM117.774 41.9534H111.277V41.4295H117.774V41.9534ZM122.111 37.4799C122.111 38.1489 121.724 38.8905 120.66 38.8905H120.346C119.282 38.8905 118.895 38.1489 118.895 37.4799C118.895 36.8109 119.282 36.0613 120.346 36.0613H120.66C121.724 36.0613 122.111 36.8109 122.111 37.4799ZM123.312 42.3645L122.861 42.5096C122.78 42.5338 122.724 42.5016 122.724 42.429V41.2038H121.426V40.6799H122.724V35.8195H123.312V42.3645ZM124.65 42.6869L124.199 42.832C124.126 42.8562 124.062 42.824 124.062 42.7514V35.6986H124.65V42.6869ZM120.725 42.3565L120.265 42.5096C120.185 42.5338 120.128 42.5016 120.128 42.429V39.9948H118.573V39.4789H122.305V39.9948H120.725V42.3565ZM121.515 37.4799C121.515 36.9157 121.176 36.5771 120.636 36.5771H120.37C119.838 36.5771 119.491 36.9157 119.491 37.4799C119.491 38.0441 119.838 38.3827 120.37 38.3827H120.636C121.176 38.3827 121.515 38.0441 121.515 37.4799ZM129.833 39.632C129.833 40.7605 129.068 41.228 128.133 41.228C127.19 41.228 126.432 40.7605 126.432 39.632V37.6975C126.432 36.5691 127.19 36.1016 128.133 36.1016C129.068 36.1016 129.833 36.5691 129.833 37.6975V38.3343H131.236V35.6986H131.824V42.6789L131.365 42.832C131.292 42.8562 131.236 42.824 131.236 42.7514V38.8502H129.833V39.632ZM129.237 39.5837V37.7459C129.237 36.964 128.761 36.6336 128.133 36.6336C127.504 36.6336 127.02 36.964 127.02 37.7459V39.5837C127.02 40.3655 127.504 40.696 128.133 40.696C128.761 40.696 129.237 40.3655 129.237 39.5837ZM140.635 40.3736L140.175 40.5268C140.103 40.5509 140.046 40.5187 140.046 40.4381V38.8582H135.887V38.3504H140.046V36.7384H135.927V36.2225H140.635V40.3736ZM141.57 42.0341H135.073V41.5101H137.604V39.8094H138.2V41.5101H141.57V42.0341ZM148.252 42.6789L147.793 42.832C147.72 42.8562 147.664 42.824 147.664 42.7514V35.6986H148.252V42.6789ZM147.011 41.1958H142.892V38.3827H145.592V36.7464H142.892V36.2305H146.197V38.8744H143.489V40.6799H147.011V41.1958ZM153.548 39.5998C153.548 40.7283 152.783 41.1958 151.848 41.1958C150.905 41.1958 150.147 40.7283 150.147 39.5998V37.6975C150.147 36.5691 150.905 36.1016 151.848 36.1016C152.783 36.1016 153.548 36.5691 153.548 37.6975V39.5998ZM152.952 39.5514V37.7459C152.952 36.964 152.476 36.6336 151.848 36.6336C151.219 36.6336 150.735 36.964 150.735 37.7459V39.5514C150.735 40.3333 151.219 40.6638 151.848 40.6638C152.476 40.6638 152.952 40.3333 152.952 39.5514ZM155.378 42.6789L154.919 42.832C154.846 42.8562 154.79 42.824 154.79 42.7514V35.6986H155.378V38.294H156.571V38.8099H155.378V42.6789Z" fill="white"/>
</svg>
