<svg width="294" height="72" viewBox="0 0 294 72" fill="none" xmlns="http://www.w3.org/2000/svg">
<path d="M90.3339 27.3829H93.0574L91.8124 29.8146L86.1127 41L80.4129 29.8146L79.1679 27.3829H81.8914L83.1364 29.8146L86.1127 35.6504L89.089 29.8146L90.3339 27.3829ZM96.6824 41H94.2508V27.3829H96.6824V41ZM102.297 29.8146C101.616 29.8146 101.052 30.3787 101.052 31.0595V32.324H109.806V34.7556H101.052V37.3234C101.052 38.0042 101.616 38.5684 102.297 38.5684H112.237V41H102.297C100.274 41 98.6396 39.3465 98.6396 37.3234V31.0595C98.6396 29.0364 100.274 27.3829 102.297 27.3829H112.237V29.8146H102.297ZM114.179 27.4024H127.776V29.834H122.193V41.0195H119.762V29.834H114.179V27.4024ZM140.923 27.3829L143.354 27.4024V41.0195L140.923 39.152L132.169 32.4018V41.0195H129.737V27.4413L132.169 29.3088L140.923 36.059V27.3829ZM157.162 38.5684L158.407 41H155.684L154.439 38.5684L151.462 32.7325L148.486 38.5684L147.241 41H144.518L145.763 38.5684L151.462 27.3829L157.162 38.5684ZM170.767 29.2504L173.199 27.3829V41H170.767V32.324L168.374 34.1526L166.39 35.6893L164.406 34.1526L162.013 32.324V41H159.582V27.3829L162.013 29.2504L166.39 32.6158L170.767 29.2504ZM187.051 41H184.62V27.3829H187.051V41ZM188.989 27.4024H202.587V29.834H197.004V41.0195H194.572V29.834H188.989V27.4024Z" fill="url(#paint0_linear_43_7)"/>
<path d="M86.7546 52.3829L86.7351 52.4024C90.4896 52.4024 93.5437 55.437 93.5437 59.1915C93.5437 60.8644 92.9406 62.4012 91.9291 63.5878C91.8124 63.724 91.6762 63.8602 91.54 63.9963C90.3145 65.2413 88.6221 66 86.7546 66H79.9461V52.3829H86.7546ZM86.7351 63.5878C89.1473 63.5878 91.1121 61.6231 91.1121 59.2109C91.1121 56.7988 89.1473 54.834 86.7351 54.834H82.3582V63.5878H86.7351ZM99.1812 54.8146C98.5004 54.8146 97.9362 55.3787 97.9362 56.0595V57.324H106.69V59.7556H97.9362V62.3234C97.9362 63.0042 98.5004 63.5684 99.1812 63.5684H109.122V66H99.1812C97.1581 66 95.5241 64.3465 95.5241 62.3234V56.0595C95.5241 54.0364 97.1581 52.3829 99.1812 52.3829H109.122V54.8146H99.1812ZM121.432 52.3829H124.155L122.91 54.8146L117.21 66L111.511 54.8146L110.266 52.3829H112.989L114.234 54.8146L117.21 60.6504L120.187 54.8146L121.432 52.3829ZM128.171 54.8146C127.49 54.8146 126.926 55.3787 126.926 56.0595V57.324H135.68V59.7556H126.926V62.3234C126.926 63.0042 127.49 63.5684 128.171 63.5684H138.111V66H128.171C126.148 66 124.514 64.3465 124.514 62.3234V56.0595C124.514 54.0364 126.148 52.3829 128.171 52.3829H138.111V54.8146H128.171ZM144.138 63.5684L151.277 63.5878V66.0195H144.371C143.69 66.0195 143.048 65.8638 142.465 65.572C141.609 65.1441 140.909 64.4438 140.5 63.5878C140.208 63.0042 140.053 62.3623 140.053 61.6814V52.4024H142.484V61.9149C142.601 62.7708 143.282 63.4517 144.138 63.5684ZM158.058 52.3829C161.813 52.3829 164.867 55.437 164.867 59.1915C164.867 62.9459 161.813 66 158.058 66C154.304 66 151.25 62.9459 151.25 59.1915C151.25 55.437 154.304 52.3829 158.058 52.3829ZM158.058 63.5684C160.471 63.5684 162.435 61.6036 162.435 59.1915C162.435 56.7793 160.471 54.8146 158.058 54.8146C155.646 54.8146 153.682 56.7793 153.682 59.1915C153.682 61.6036 155.646 63.5684 158.058 63.5684ZM177.53 53.4528L177.549 53.4723C178.211 54.1532 178.619 55.0674 178.619 56.079C178.619 57.5574 177.744 58.8413 176.479 59.4249C176.149 59.5805 175.799 59.6778 175.429 59.7167C175.39 59.7167 175.351 59.7167 175.312 59.7167V59.7362H168.796V66H166.364V52.3829H174.943C175.954 52.3829 176.869 52.7914 177.53 53.4528ZM175.468 57.2073V57.1878C175.915 56.9933 176.207 56.5459 176.207 56.0595C176.207 55.6121 175.974 55.3009 175.838 55.1647C175.682 55.0091 175.39 54.8146 174.962 54.8146H168.796V57.324H174.962C175.137 57.324 175.312 57.2851 175.468 57.2073ZM184.231 54.8146C183.55 54.8146 182.986 55.3787 182.986 56.0595V57.324H191.74V59.7556H182.986V62.3234C182.986 63.0042 183.55 63.5684 184.231 63.5684H194.171V66H184.231C182.208 66 180.574 64.3465 180.574 62.3234V56.0595C180.574 54.0364 182.208 52.3829 184.231 52.3829H194.171V54.8146H184.231ZM205.158 59.7167L207.104 63.6073L208.349 66.0389H205.625L204.38 63.6073L203.077 61.059L203.019 60.9422C202.591 60.2419 201.832 59.7751 200.957 59.7751H198.525V66.0389H196.093V52.4218H204.692C205.703 52.4218 206.617 52.8304 207.279 53.4918C207.94 54.1532 208.349 55.0674 208.349 56.079C208.349 57.5574 207.473 58.8413 206.209 59.4249C205.878 59.5805 205.528 59.6778 205.158 59.7167ZM198.525 57.3629L204.692 57.3434C204.867 57.3434 205.042 57.3045 205.197 57.2267C205.645 57.0322 205.937 56.5848 205.937 56.0984C205.937 55.651 205.703 55.3398 205.567 55.2036C205.411 55.048 205.12 54.8535 204.692 54.8535H198.525V57.3629ZM230.988 52.3829H233.419V66H230.988V59.7556H222.234V66H219.802V52.3829H222.234V57.324H230.988V52.3829ZM241.702 52.3829C245.457 52.3829 248.511 55.437 248.511 59.1915C248.511 62.9459 245.457 66 241.702 66C237.948 66 234.894 62.9459 234.894 59.1915C234.894 55.437 237.948 52.3829 241.702 52.3829ZM241.702 63.5684C244.115 63.5684 246.079 61.6036 246.079 59.1915C246.079 56.7793 244.115 54.8146 241.702 54.8146C239.29 54.8146 237.325 56.7793 237.325 59.1915C237.325 61.6036 239.29 63.5684 241.702 63.5684ZM261.174 52.3829H263.605V59.1915C263.605 62.9459 260.551 66 256.797 66C253.042 66 249.988 62.9459 249.988 59.1915V52.3829H252.42V59.1915C252.42 61.6036 254.385 63.5684 256.797 63.5684C259.209 63.5684 261.174 61.6036 261.174 59.1915V52.3829ZM278.425 56.1374L275.993 56.1568V56.079C275.993 55.3981 275.429 54.834 274.748 54.834H269.224C268.543 54.834 267.979 55.3981 267.979 56.079V56.1568C267.979 56.8377 268.543 57.4018 269.224 57.4018H274.126C275.39 57.4018 276.518 57.9465 277.297 58.8024C277.355 58.8608 277.394 58.9191 277.452 58.9775C278.055 59.7167 278.425 60.6699 278.425 61.7009C278.425 64.0742 276.499 66 274.126 66H269.865C267.492 66 265.566 64.0742 265.566 61.7009H267.998C267.998 62.7319 268.834 63.5684 269.865 63.5684H274.126C275.157 63.5684 276.013 62.7319 276.013 61.7009C276.013 60.6699 275.157 59.8334 274.126 59.8334H269.224C268.231 59.8334 267.337 59.4444 266.675 58.8024C266.5 58.6273 266.345 58.4328 266.208 58.2188C265.8 57.6352 265.566 56.9155 265.566 56.1374V56.0595C265.566 54.0364 267.2 52.3829 269.224 52.3829H274.748C276.771 52.3829 278.425 54.0364 278.425 56.0595V56.1374ZM284.041 54.8146C283.36 54.8146 282.796 55.3787 282.796 56.0595V57.324H291.55V59.7556H282.796V62.3234C282.796 63.0042 283.36 63.5684 284.041 63.5684H293.982V66H284.041C282.018 66 280.384 64.3465 280.384 62.3234V56.0595C280.384 54.0364 282.018 52.3829 284.041 52.3829H293.982V54.8146H284.041Z" fill="url(#paint1_linear_43_7)"/>
<path fill-rule="evenodd" clip-rule="evenodd" d="M41.4033 5.95734L67.008 25.6047H41.4033V5.95734ZM37.0451 2.61311L33.6397 0L12.5304 16.0672V20.2845C12.53 21.5841 12.0134 22.8303 11.0942 23.7491L9.20796 25.6047H27.2916C27.2572 25.4156 27.2391 25.2208 27.2391 25.0217C27.2391 23.238 28.6852 21.792 30.4689 21.792C32.2527 21.792 33.6987 23.238 33.6987 25.0217C33.6987 25.2208 33.6807 25.4156 33.6462 25.6047H37.0451V2.61311ZM9.20735 25.6053H27.2917C27.5045 26.7713 28.3434 27.7188 29.4473 28.0866C29.426 28.1706 29.415 28.2577 29.415 28.3458V33.1694C29.4178 34.4188 29.9161 35.6161 30.8006 36.4987C31.6851 37.3812 32.8835 37.8768 34.133 37.8768H37.0451L37.0451 71.3669H33.4953V65.5668C33.4953 65.3977 33.4282 65.2356 33.3086 65.1161C33.1891 64.9966 33.027 64.9295 32.858 64.9295C32.689 64.9295 32.5269 64.9966 32.4074 65.1161C32.2879 65.2356 32.2207 65.3977 32.2207 65.5668V71.3669H30.4938V62.3921C30.4938 62.223 30.4267 62.0609 30.3071 61.9414C30.1876 61.8219 30.0255 61.7548 29.8565 61.7548C29.6875 61.7548 29.5254 61.8219 29.4059 61.9414C29.2863 62.0609 29.2192 62.223 29.2192 62.3921V71.3669H27.492V65.5668C27.492 65.3977 27.4249 65.2356 27.3053 65.1161C27.1858 64.9966 27.0237 64.9295 26.8547 64.9295C26.6857 64.9295 26.5236 64.9966 26.4041 65.1161C26.2845 65.2356 26.2174 65.3977 26.2174 65.5668V71.3669H24.7001V59.4744C24.7001 59.3053 24.633 59.1432 24.5134 59.0237C24.3939 58.9042 24.2318 58.8371 24.0628 58.8371C23.8938 58.8371 23.7317 58.9042 23.6122 59.0237C23.4926 59.1432 23.4255 59.3053 23.4255 59.4744V71.3669L4.57764e-06 71.3669V25.6053H6.51343C6.48564 25.6661 6.45908 25.7275 6.43377 25.7895C6.19104 26.3841 6.06836 27.0209 6.07282 27.6631V31.5881C6.07282 31.6451 6.07727 31.7018 6.08598 31.7574C4.76433 32.2078 3.81367 33.4598 3.81367 34.9338C3.81367 36.7867 5.3157 38.2887 7.16855 38.2887C9.0214 38.2887 10.5234 36.7867 10.5234 34.9338C10.5234 33.4602 9.57336 32.2085 8.25233 31.7579C8.26108 31.702 8.26556 31.6453 8.26556 31.5881V27.6631C8.2654 27.3062 8.33606 26.9529 8.47345 26.6236C8.61083 26.2942 8.8122 25.9954 9.0659 25.7444L9.20735 25.6053ZM37.0451 35.7658V25.6053H33.6461C33.4335 26.7703 32.5959 27.7172 31.4934 28.0856C31.5148 28.17 31.526 28.2573 31.526 28.3458V33.1694C31.526 33.8608 31.8006 34.5239 32.2896 35.0128C32.7785 35.5017 33.4416 35.7764 34.133 35.7764L37.0451 35.7658ZM6.51371 25.6047C6.75244 25.0827 7.08185 24.6065 7.48714 24.1986L9.54831 22.1264C10.051 21.6184 10.3344 20.9335 10.3377 20.2188V17.7362L0 25.6047H6.51371ZM41.4033 71.3669L67.008 71.3669V25.6053H41.4033L41.4033 71.3669ZM57.7373 43.6077C59.2502 43.0559 60.3304 41.6044 60.3304 39.9006C60.3304 37.7219 58.5642 35.9557 56.3855 35.9557C54.2069 35.9557 52.4407 37.7219 52.4407 39.9006C52.4407 41.7497 53.713 43.3017 55.4299 43.7289V53.4385H52.2919C51.9859 53.4385 51.6925 53.56 51.4761 53.7764C51.2597 53.9927 51.1382 54.2862 51.1382 54.5922V71.2515H53.4456V55.7459H56.5836C56.8896 55.7459 57.183 55.6243 57.3994 55.408C57.6158 55.1916 57.7373 54.8981 57.7373 54.5922V43.6077ZM16.1661 42.4926C14.2623 42.4926 12.719 44.0359 12.719 45.9397C12.719 47.3465 13.5618 48.5565 14.77 49.0923C14.7456 49.1851 14.7329 49.2814 14.7329 49.379V53.4118C14.733 53.7785 14.6604 54.1415 14.5193 54.4799C14.3781 54.8183 14.1712 55.1253 13.9105 55.3832L11.8265 57.4334C10.8821 58.3773 10.3513 59.6578 10.3509 60.9931V71.1314L12.6038 71.199V61.0606C12.6072 60.3263 12.8984 59.6226 13.4149 59.1006L15.5327 56.9715C15.9978 56.5034 16.3656 55.9478 16.615 55.3369C16.8644 54.7259 16.9904 54.0717 16.9859 53.4118V49.379C16.9859 49.349 16.9847 49.3192 16.9823 49.2895C18.4921 48.9229 19.6131 47.5622 19.6131 45.9397C19.6131 44.0359 18.0698 42.4926 16.1661 42.4926Z" fill="url(#paint2_linear_43_7)"/>
<defs>
<linearGradient id="paint0_linear_43_7" x1="78.9734" y1="36.5" x2="259.973" y2="36.5" gradientUnits="userSpaceOnUse">
<stop stop-color="#2250B5"/>
<stop offset="1" stop-color="#289BE3"/>
</linearGradient>
<linearGradient id="paint1_linear_43_7" x1="78.9734" y1="61.5" x2="301.973" y2="61.5" gradientUnits="userSpaceOnUse">
<stop stop-color="#2250B5"/>
<stop offset="1" stop-color="#289BE3"/>
</linearGradient>
<linearGradient id="paint2_linear_43_7" x1="67.008" y1="35.6835" x2="0" y2="35.6835" gradientUnits="userSpaceOnUse">
<stop stop-color="#289BE3"/>
<stop offset="1" stop-color="#2250B5"/>
</linearGradient>
</defs>
</svg>
