<svg width="64" height="57" viewBox="0 0 64 57" fill="none" xmlns="http://www.w3.org/2000/svg">
<path d="M18.5235 44.8009H19.244L18.9146 45.4442L17.4067 48.4034L15.8988 45.4442L15.5695 44.8009H16.29L16.6193 45.4442L17.4067 46.9881L18.1941 45.4442L18.5235 44.8009ZM20.203 48.4034H19.5597V44.8009H20.203V48.4034ZM21.6883 45.4442C21.5082 45.4442 21.3589 45.5934 21.3589 45.7736V46.1081H23.6748V46.7514H21.3589V47.4307C21.3589 47.6108 21.5082 47.7601 21.6883 47.7601H24.3181V48.4034H21.6883C21.1531 48.4034 20.7208 47.9659 20.7208 47.4307V45.7736C20.7208 45.2383 21.1531 44.8009 21.6883 44.8009H24.3181V45.4442H21.6883ZM24.8317 44.8061H28.4291V45.4493H26.952V48.4085H26.3087V45.4493H24.8317V44.8061ZM31.907 44.8009L32.5503 44.8061V48.4085L31.907 47.9145L29.5911 46.1287V48.4085H28.9478V44.8163L29.5911 45.3104L31.907 47.0962V44.8009ZM36.2032 47.7601L36.5326 48.4034H35.8121L35.4827 47.7601L34.6953 46.2162L33.9079 47.7601L33.5786 48.4034H32.8581L33.1874 47.7601L34.6953 44.8009L36.2032 47.7601ZM39.8025 45.295L40.4458 44.8009V48.4034H39.8025V46.1081L39.1695 46.5918L38.6445 46.9984L38.1196 46.5918L37.4866 46.1081V48.4034H36.8433V44.8009L37.4866 45.295L38.6445 46.1853L39.8025 45.295ZM44.1105 48.4034H43.4672V44.8009H44.1105V48.4034ZM44.6232 44.8061H48.2205V45.4493H46.7435V48.4085H46.1002V45.4493H44.6232V44.8061Z" fill="white"/>
<path d="M6.74354 51.8009L6.73839 51.8061C7.73164 51.8061 8.53963 52.6089 8.53963 53.6021C8.53963 54.0447 8.38009 54.4513 8.11248 54.7652C8.0816 54.8012 8.04557 54.8373 8.00955 54.8733C7.68533 55.2027 7.23759 55.4034 6.74354 55.4034H4.94231V51.8009H6.74354ZM6.73839 54.7652C7.37654 54.7652 7.89633 54.2454 7.89633 53.6073C7.89633 52.9691 7.37654 52.4493 6.73839 52.4493H5.58046V54.7652H6.73839ZM10.0311 52.4442C9.85094 52.4442 9.7017 52.5934 9.7017 52.7736V53.1081H12.0176V53.7514H9.7017V54.4307C9.7017 54.6108 9.85094 54.7601 10.0311 54.7601H12.6609V55.4034H10.0311C9.49584 55.4034 9.06355 54.9659 9.06355 54.4307V52.7736C9.06355 52.2383 9.49584 51.8009 10.0311 51.8009H12.6609V52.4442H10.0311ZM15.9175 51.8009H16.638L16.3086 52.4442L14.8008 55.4034L13.2929 52.4442L12.9635 51.8009H13.684L14.0134 52.4442L14.8008 53.9881L15.5881 52.4442L15.9175 51.8009ZM17.7004 52.4442C17.5202 52.4442 17.371 52.5934 17.371 52.7736V53.1081H19.6869V53.7514H17.371V54.4307C17.371 54.6108 17.5202 54.7601 17.7004 54.7601H20.3302V55.4034H17.7004C17.1651 55.4034 16.7329 54.9659 16.7329 54.4307V52.7736C16.7329 52.2383 17.1651 51.8009 17.7004 51.8009H20.3302V52.4442H17.7004ZM21.9245 54.7601L23.8133 54.7652V55.4085H21.9863C21.8062 55.4085 21.6363 55.3673 21.4819 55.2901C21.2555 55.1769 21.0702 54.9917 20.9622 54.7652C20.885 54.6108 20.8438 54.441 20.8438 54.2609V51.8061H21.4871V54.3226C21.518 54.5491 21.6981 54.7292 21.9245 54.7601ZM25.6073 51.8009C26.6006 51.8009 27.4086 52.6089 27.4086 53.6021C27.4086 54.5954 26.6006 55.4034 25.6073 55.4034C24.6141 55.4034 23.8061 54.5954 23.8061 53.6021C23.8061 52.6089 24.6141 51.8009 25.6073 51.8009ZM25.6073 54.7601C26.2455 54.7601 26.7653 54.2403 26.7653 53.6021C26.7653 52.964 26.2455 52.4442 25.6073 52.4442C24.9692 52.4442 24.4494 52.964 24.4494 53.6021C24.4494 54.2403 24.9692 54.7601 25.6073 54.7601ZM30.7586 52.084L30.7638 52.0891C30.9387 52.2692 31.0468 52.5111 31.0468 52.7787C31.0468 53.1698 30.8152 53.5095 30.4807 53.6639C30.3932 53.7051 30.3006 53.7308 30.2028 53.7411C30.1925 53.7411 30.1822 53.7411 30.1719 53.7411V53.7462H28.4479V55.4034H27.8046V51.8009H30.0741C30.3418 51.8009 30.5836 51.909 30.7586 52.084ZM30.2131 53.0772V53.0721C30.3315 53.0206 30.4087 52.9022 30.4087 52.7736C30.4087 52.6552 30.3469 52.5729 30.3109 52.5368C30.2697 52.4957 30.1925 52.4442 30.0793 52.4442H28.4479V53.1081H30.0793C30.1256 53.1081 30.1719 53.0978 30.2131 53.0772ZM32.5314 52.4442C32.3512 52.4442 32.202 52.5934 32.202 52.7736V53.1081H34.5179V53.7514H32.202V54.4307C32.202 54.6108 32.3512 54.7601 32.5314 54.7601H35.1612V55.4034H32.5314C31.9962 55.4034 31.5639 54.9659 31.5639 54.4307V52.7736C31.5639 52.2383 31.9962 51.8009 32.5314 51.8009H35.1612V52.4442H32.5314ZM38.0679 53.7411L38.5825 54.7704L38.9119 55.4137H38.1914L37.862 54.7704L37.5172 54.0962L37.5018 54.0653C37.3885 53.88 37.1878 53.7565 36.9562 53.7565H36.3129V55.4137H35.6697V51.8112H37.9443C38.212 51.8112 38.4538 51.9193 38.6288 52.0942C38.8038 52.2692 38.9119 52.5111 38.9119 52.7787C38.9119 53.1698 38.6803 53.5095 38.3458 53.6639C38.2583 53.7051 38.1656 53.7308 38.0679 53.7411ZM36.3129 53.1184L37.9443 53.1132C37.9907 53.1132 38.037 53.1029 38.0782 53.0824C38.1965 53.0309 38.2737 52.9125 38.2737 52.7839C38.2737 52.6655 38.212 52.5832 38.1759 52.5471C38.1348 52.506 38.0576 52.4545 37.9443 52.4545H36.3129V53.1184ZM42.3932 51.8009H43.0365V55.4034H42.3932V53.7514H40.0774V55.4034H39.4341V51.8009H40.0774V53.1081H42.3932V51.8009ZM45.2279 51.8009C46.2211 51.8009 47.0291 52.6089 47.0291 53.6021C47.0291 54.5954 46.2211 55.4034 45.2279 55.4034C44.2346 55.4034 43.4266 54.5954 43.4266 53.6021C43.4266 52.6089 44.2346 51.8009 45.2279 51.8009ZM45.2279 54.7601C45.866 54.7601 46.3858 54.2403 46.3858 53.6021C46.3858 52.964 45.866 52.4442 45.2279 52.4442C44.5897 52.4442 44.0699 52.964 44.0699 53.6021C44.0699 54.2403 44.5897 54.7601 45.2279 54.7601ZM50.3792 51.8009H51.0225V53.6021C51.0225 54.5954 50.2145 55.4034 49.2212 55.4034C48.228 55.4034 47.42 54.5954 47.42 53.6021V51.8009H48.0633V53.6021C48.0633 54.2403 48.5831 54.7601 49.2212 54.7601C49.8594 54.7601 50.3792 54.2403 50.3792 53.6021V51.8009ZM54.943 52.7942L54.2997 52.7993V52.7787C54.2997 52.5986 54.1504 52.4493 53.9703 52.4493H52.5087C52.3286 52.4493 52.1794 52.5986 52.1794 52.7787V52.7993C52.1794 52.9794 52.3286 53.1287 52.5087 53.1287H53.8056C54.1401 53.1287 54.4386 53.2728 54.6445 53.4992C54.6599 53.5146 54.6702 53.5301 54.6857 53.5455C54.8452 53.7411 54.943 53.9933 54.943 54.266C54.943 54.8939 54.4335 55.4034 53.8056 55.4034H52.6786C52.0507 55.4034 51.5412 54.8939 51.5412 54.266H52.1845C52.1845 54.5388 52.4058 54.7601 52.6786 54.7601H53.8056C54.0784 54.7601 54.3048 54.5388 54.3048 54.266C54.3048 53.9933 54.0784 53.772 53.8056 53.772H52.5087C52.2463 53.772 52.0095 53.669 51.8346 53.4992C51.7883 53.4529 51.7471 53.4014 51.7111 53.3448C51.603 53.1904 51.5412 53 51.5412 52.7942V52.7736C51.5412 52.2383 51.9735 51.8009 52.5087 51.8009H53.9703C54.5055 51.8009 54.943 52.2383 54.943 52.7736V52.7942ZM56.4288 52.4442C56.2487 52.4442 56.0995 52.5934 56.0995 52.7736V53.1081H58.4153V53.7514H56.0995V54.4307C56.0995 54.6108 56.2487 54.7601 56.4288 54.7601H59.0586V55.4034H56.4288C55.8936 55.4034 55.4613 54.9659 55.4613 54.4307V52.7736C55.4613 52.2383 55.8936 51.8009 56.4288 51.8009H59.0586V52.4442H56.4288Z" fill="white"/>
<path fill-rule="evenodd" clip-rule="evenodd" d="M36.7916 3.27938L50.8863 14.0947H50.8864V39.2854H36.7916L36.7916 3.27938ZM34.3925 1.43846L32.5178 0L20.8977 8.84464V11.1658C20.8974 11.8812 20.613 12.5673 20.1071 13.073L18.9905 14.1714C18.8509 14.3095 18.74 14.474 18.6644 14.6553C18.5888 14.8366 18.5499 15.0311 18.55 15.2276V17.3882C18.55 17.4196 18.5475 17.4508 18.5427 17.4815C19.2699 17.7296 19.7929 18.4187 19.7929 19.2298C19.7929 20.2498 18.966 21.0766 17.9461 21.0766C16.9261 21.0766 16.0993 20.2498 16.0993 19.2298C16.0993 18.4184 16.6226 17.7292 17.3502 17.4813C17.3454 17.4507 17.3429 17.4196 17.3429 17.3882V15.2276C17.3405 14.874 17.408 14.5235 17.5416 14.1962C17.6752 13.8689 17.8723 13.5712 18.1215 13.3204L19.2561 12.1798C19.5328 11.9001 19.6888 11.5231 19.6906 11.1296V9.76338L14.0001 14.0947H14V14.0948V14.0948V39.2854H26.8952V32.7389C26.8952 32.6459 26.9321 32.5566 26.9979 32.4908C27.0637 32.425 27.1529 32.3881 27.246 32.3881C27.339 32.3881 27.4283 32.425 27.4941 32.4908C27.5598 32.5566 27.5968 32.6459 27.5968 32.7389V39.2854H28.4321V36.0928C28.4321 35.9998 28.469 35.9105 28.5348 35.8447C28.6006 35.7789 28.6898 35.742 28.7829 35.742C28.8759 35.742 28.9651 35.7789 29.0309 35.8447C29.0967 35.9105 29.1337 35.9998 29.1337 36.0928V39.2854H30.0845V34.3451C30.0845 34.2521 30.1214 34.1628 30.1872 34.097C30.253 34.0312 30.3423 33.9943 30.4353 33.9943C30.5283 33.9943 30.6176 34.0312 30.6834 34.097C30.7492 34.1628 30.7861 34.2521 30.7861 34.3451V39.2854H31.7367V36.0928C31.7367 35.9998 31.7737 35.9105 31.8395 35.8447C31.9053 35.7789 31.9945 35.742 32.0876 35.742C32.1806 35.742 32.2698 35.7789 32.3356 35.8447C32.4014 35.9105 32.4384 35.9998 32.4384 36.0928V39.2854H34.3925V20.8502H32.7894C32.1016 20.8502 31.4419 20.5774 30.955 20.0916C30.4681 19.6058 30.1938 18.9467 30.1923 18.2589V15.6036C30.1923 15.555 30.1984 15.5071 30.2101 15.4607C29.5038 15.2254 28.9945 14.559 28.9945 13.7736C28.9945 12.7917 29.7905 11.9957 30.7724 11.9957C31.7543 11.9957 32.5503 12.7917 32.5503 13.7736C32.5503 14.5584 32.0418 15.2244 31.3363 15.4602C31.3482 15.5067 31.3543 15.5549 31.3543 15.6036V18.2589C31.3543 18.6395 31.5055 19.0045 31.7746 19.2737C32.0438 19.5428 32.4088 19.694 32.7894 19.694L34.3925 19.6882V1.43846ZM45.783 24.0049C46.6159 23.7011 47.2105 22.9021 47.2105 21.9642C47.2105 20.7649 46.2382 19.7926 45.0389 19.7926C43.8396 19.7926 42.8674 20.7649 42.8674 21.9642C42.8674 22.9821 43.5677 23.8364 44.5129 24.0716V29.4164H42.7855C42.617 29.4164 42.4555 29.4834 42.3364 29.6025C42.2173 29.7216 42.1504 29.8831 42.1504 30.0515V39.2221H43.4206V30.6866H45.148C45.3164 30.6866 45.4779 30.6197 45.597 30.5006C45.7161 30.3815 45.783 30.22 45.783 30.0515V24.0049ZM22.899 23.391C21.8511 23.391 21.0015 24.2405 21.0015 25.2885C21.0015 26.0629 21.4654 26.729 22.1305 27.0239C22.1171 27.075 22.1101 27.128 22.1101 27.1818V29.4017C22.1102 29.6036 22.0702 29.8034 21.9925 29.9897C21.9148 30.176 21.8009 30.345 21.6574 30.4869L20.5102 31.6155C19.9903 32.1351 19.6982 32.84 19.6979 33.575V39.156L20.9381 39.1932V33.6123C20.94 33.208 21.1003 32.8206 21.3846 32.5333L22.5504 31.3613C22.8064 31.1036 23.0089 30.7978 23.1462 30.4615C23.2834 30.1251 23.3528 29.765 23.3503 29.4017V27.1818C23.3503 27.1653 23.3496 27.1488 23.3483 27.1325C24.1795 26.9307 24.7966 26.1817 24.7966 25.2885C24.7966 24.2405 23.947 23.391 22.899 23.391Z" fill="white"/>
</svg>
