<svg width="174" height="42" viewBox="0 0 174 42" fill="none" xmlns="http://www.w3.org/2000/svg">
<path d="M55.2846 14.0137L51.9479 23.3564H50.7703L47.4336 14.0137H48.6636L50.7703 20.0067C50.8662 20.2597 50.9491 20.5039 51.0189 20.7394C51.0887 20.975 51.1497 21.2018 51.2021 21.4199C51.2631 21.6292 51.3155 21.8386 51.3591 22.0479C51.4027 21.8386 51.4507 21.6249 51.503 21.4068C51.5641 21.1887 51.6295 20.9619 51.6993 20.7264C51.7778 20.4908 51.8607 20.2422 51.9479 19.9805L54.0415 14.0137H55.2846ZM59.1788 23.3564H55.8029V22.676L56.902 22.4274V14.9559L55.8029 14.6942V14.0137H59.1788V14.6942L58.0797 14.9559V22.4274L59.1788 22.676V23.3564ZM66.2037 23.3564H60.9828V14.0137H66.2037V15.0475H62.1605V17.9654H65.9682V18.986H62.1605V22.3227H66.2037V23.3564ZM71.2109 23.3564H70.0333V15.0475H67.1153V14.0137H74.1158V15.0475H71.2109V23.3564ZM82.9307 23.3564H81.5568L76.5583 15.597H76.506C76.5147 15.754 76.5234 15.9285 76.5321 16.1204C76.5496 16.3123 76.5627 16.5217 76.5714 16.7485C76.5801 16.9666 76.5888 17.1934 76.5975 17.4289C76.6063 17.6645 76.6106 17.9 76.6106 18.1355V23.3564H75.5246V14.0137H76.8854L81.8708 21.747H81.9232C81.9144 21.6423 81.9057 21.4984 81.897 21.3152C81.8883 21.1233 81.8795 20.9139 81.8708 20.6871C81.8621 20.4516 81.8534 20.2117 81.8446 19.9674C81.8359 19.7232 81.8316 19.4964 81.8316 19.287V14.0137H82.9307V23.3564ZM91.3282 23.3564L90.2029 20.4647H86.4998L85.3876 23.3564H84.1969L87.8476 13.9745H88.9075L92.5451 23.3564H91.3282ZM88.8028 16.5915C88.7766 16.5217 88.733 16.3952 88.672 16.212C88.6109 16.0288 88.5498 15.8413 88.4888 15.6494C88.4364 15.4487 88.3928 15.2961 88.3579 15.1914C88.3143 15.3659 88.2663 15.5447 88.214 15.7279C88.1704 15.9023 88.1224 16.0637 88.07 16.212C88.0264 16.3603 87.9872 16.4868 87.9523 16.5915L86.8924 19.4179H89.8496L88.8028 16.5915ZM97.9449 23.3564L94.87 15.1652H94.8176C94.8351 15.3397 94.8482 15.5621 94.8569 15.8326C94.8743 16.103 94.8874 16.3996 94.8961 16.7223C94.9049 17.0364 94.9092 17.3591 94.9092 17.6906V23.3564H93.8232V14.0137H95.5635L98.4422 21.6685H98.4945L101.426 14.0137H103.153V23.3564H101.988V17.6121C101.988 17.3068 101.993 17.0058 102.001 16.7093C102.01 16.4039 102.023 16.1204 102.041 15.8587C102.058 15.5883 102.071 15.3615 102.08 15.1783H102.027L98.9132 23.3564H97.9449ZM111.199 23.3564H107.824V22.676L108.923 22.4274V14.9559L107.824 14.6942V14.0137H111.199V14.6942L110.1 14.9559V22.4274L111.199 22.676V23.3564ZM115.961 23.3564H114.783V15.0475H111.865V14.0137H118.866V15.0475H115.961V23.3564Z" fill="white"/>
<path d="M56.1875 34.9343C56.1875 35.9811 55.9912 36.8578 55.5986 37.5644C55.2148 38.271 54.6609 38.8031 53.9368 39.1608C53.2128 39.5184 52.3361 39.6973 51.3068 39.6973H48.7028V30.3546H51.5815C52.5237 30.3546 53.3393 30.529 54.0284 30.878C54.7176 31.2269 55.2497 31.7416 55.6248 32.422C55.9999 33.0937 56.1875 33.9311 56.1875 34.9343ZM54.9444 34.9736C54.9444 34.1449 54.8048 33.4644 54.5257 32.9323C54.2553 32.4002 53.854 32.0076 53.3219 31.7547C52.7985 31.493 52.1616 31.3621 51.4114 31.3621H49.8805V38.6897H51.1497C52.4146 38.6897 53.3611 38.38 53.9892 37.7607C54.626 37.1326 54.9444 36.2036 54.9444 34.9736ZM63.482 39.6973H58.261V30.3546H63.482V31.3883H59.4387V34.3062H63.2464V35.3269H59.4387V38.6635H63.482V39.6973ZM72.1137 30.3546L68.777 39.6973H67.5993L64.2627 30.3546H65.4927L67.5993 36.3475C67.6953 36.6005 67.7782 36.8447 67.848 37.0803C67.9177 37.3158 67.9788 37.5426 68.0312 37.7607C68.0922 37.97 68.1446 38.1794 68.1882 38.3888C68.2318 38.1794 68.2798 37.9657 68.3321 37.7476C68.3932 37.5295 68.4586 37.3027 68.5284 37.0672C68.6069 36.8316 68.6898 36.583 68.777 36.3213L70.8706 30.3546H72.1137ZM78.5987 39.6973H73.3778V30.3546H78.5987V31.3883H74.5555V34.3062H78.3632V35.3269H74.5555V38.6635H78.5987V39.6973ZM80.6487 39.6973V30.3546H81.8263V38.6505H85.9089V39.6973H80.6487ZM95.4071 35.0128C95.4071 35.7369 95.3155 36.3955 95.1323 36.9887C94.9491 37.5731 94.6743 38.0791 94.3079 38.5065C93.9503 38.934 93.501 39.2611 92.9602 39.4879C92.428 39.7147 91.8087 39.8281 91.1021 39.8281C90.3693 39.8281 89.7325 39.7147 89.1917 39.4879C88.6508 39.2524 88.2016 38.9252 87.8439 38.5065C87.4863 38.0791 87.2202 37.5688 87.0457 36.9756C86.8713 36.3824 86.784 35.7238 86.784 34.9997C86.784 34.0402 86.9411 33.2027 87.2551 32.4874C87.5691 31.7721 88.0446 31.2138 88.6814 30.8125C89.3269 30.4113 90.1382 30.2106 91.1152 30.2106C92.0486 30.2106 92.8337 30.4113 93.4705 30.8125C94.1073 31.2051 94.5871 31.7634 94.9098 32.4874C95.2413 33.2027 95.4071 34.0445 95.4071 35.0128ZM88.0271 35.0128C88.0271 35.7979 88.1361 36.474 88.3542 37.041C88.5723 37.608 88.9082 38.0442 89.3618 38.3495C89.8241 38.6548 90.4042 38.8075 91.1021 38.8075C91.8087 38.8075 92.3844 38.6548 92.8293 38.3495C93.2829 38.0442 93.6188 37.608 93.8369 37.041C94.0549 36.474 94.164 35.7979 94.164 35.0128C94.164 33.8352 93.9197 32.9149 93.4312 32.2519C92.9427 31.5802 92.1707 31.2443 91.1152 31.2443C90.4086 31.2443 89.8241 31.397 89.3618 31.7023C88.9082 31.9989 88.5723 32.4307 88.3542 32.9977C88.1361 33.556 88.0271 34.2277 88.0271 35.0128ZM99.9508 30.3546C101.172 30.3546 102.062 30.5945 102.62 31.0742C103.178 31.554 103.458 32.2301 103.458 33.1024C103.458 33.4862 103.392 33.857 103.261 34.2146C103.139 34.5636 102.934 34.8776 102.646 35.1568C102.358 35.4359 101.975 35.6584 101.495 35.8241C101.015 35.9811 100.426 36.0596 99.7284 36.0596H98.6554V39.6973H97.4778V30.3546H99.9508ZM99.8462 31.3621H98.6554V35.0521H99.5975C100.191 35.0521 100.684 34.991 101.076 34.8689C101.469 34.738 101.761 34.533 101.953 34.2539C102.145 33.9748 102.241 33.6084 102.241 33.1548C102.241 32.5528 102.049 32.1036 101.665 31.807C101.281 31.5104 100.675 31.3621 99.8462 31.3621ZM110.621 39.6973H105.4V30.3546H110.621V31.3883H106.578V34.3062H110.386V35.3269H106.578V38.6635H110.621V39.6973ZM115.249 30.3546C116.025 30.3546 116.662 30.4549 117.159 30.6555C117.665 30.8474 118.04 31.1397 118.285 31.5322C118.529 31.9248 118.651 32.4176 118.651 33.0108C118.651 33.5081 118.559 33.9224 118.376 34.2539C118.193 34.5854 117.958 34.8514 117.67 35.0521C117.391 35.244 117.094 35.3967 116.78 35.5101L119.345 39.6973H117.971L115.707 35.8372H113.849V39.6973H112.671V30.3546H115.249ZM115.184 31.3752H113.849V34.8427H115.249C115.755 34.8427 116.169 34.7773 116.492 34.6464C116.815 34.5069 117.05 34.3062 117.199 34.0445C117.356 33.7828 117.434 33.4557 117.434 33.0632C117.434 32.6532 117.351 32.326 117.186 32.0818C117.029 31.8375 116.784 31.6587 116.453 31.5453C116.121 31.4319 115.698 31.3752 115.184 31.3752ZM130.831 39.6973H129.653V35.34H124.864V39.6973H123.686V30.3546H124.864V34.3062H129.653V30.3546H130.831V39.6973ZM141.537 35.0128C141.537 35.7369 141.445 36.3955 141.262 36.9887C141.079 37.5731 140.804 38.0791 140.438 38.5065C140.08 38.934 139.631 39.2611 139.09 39.4879C138.558 39.7147 137.938 39.8281 137.232 39.8281C136.499 39.8281 135.862 39.7147 135.321 39.4879C134.781 39.2524 134.331 38.9252 133.974 38.5065C133.616 38.0791 133.35 37.5688 133.176 36.9756C133.001 36.3824 132.914 35.7238 132.914 34.9997C132.914 34.0402 133.071 33.2027 133.385 32.4874C133.699 31.7721 134.174 31.2138 134.811 30.8125C135.457 30.4113 136.268 30.2106 137.245 30.2106C138.178 30.2106 138.963 30.4113 139.6 30.8125C140.237 31.2051 140.717 31.7634 141.04 32.4874C141.371 33.2027 141.537 34.0445 141.537 35.0128ZM134.157 35.0128C134.157 35.7979 134.266 36.474 134.484 37.041C134.702 37.608 135.038 38.0442 135.492 38.3495C135.954 38.6548 136.534 38.8075 137.232 38.8075C137.938 38.8075 138.514 38.6548 138.959 38.3495C139.413 38.0442 139.749 37.608 139.967 37.041C140.185 36.474 140.294 35.7979 140.294 35.0128C140.294 33.8352 140.05 32.9149 139.561 32.2519C139.073 31.5802 138.301 31.2443 137.245 31.2443C136.538 31.2443 135.954 31.397 135.492 31.7023C135.038 31.9989 134.702 32.4307 134.484 32.9977C134.266 33.556 134.157 34.2277 134.157 35.0128ZM150.713 36.3998C150.713 37.0454 150.582 37.6298 150.32 38.1532C150.058 38.6679 149.657 39.0779 149.116 39.3832C148.584 39.6798 147.904 39.8281 147.075 39.8281C145.915 39.8281 145.029 39.5141 144.419 38.886C143.817 38.2492 143.516 37.4117 143.516 36.3737V30.3546H144.694V36.4129C144.694 37.1719 144.894 37.7607 145.296 38.1794C145.706 38.5981 146.321 38.8075 147.141 38.8075C147.708 38.8075 148.166 38.7072 148.514 38.5065C148.872 38.2972 149.134 38.0137 149.3 37.656C149.465 37.2896 149.548 36.8709 149.548 36.3998V30.3546H150.713V36.3998ZM158.478 37.198C158.478 37.7563 158.343 38.2317 158.072 38.6243C157.802 39.0081 157.414 39.3047 156.908 39.5141C156.411 39.7234 155.822 39.8281 155.141 39.8281C154.792 39.8281 154.457 39.8107 154.134 39.7758C153.82 39.7409 153.532 39.6929 153.27 39.6318C153.008 39.5621 152.777 39.4792 152.577 39.3832V38.2579C152.891 38.3975 153.279 38.524 153.741 38.6374C154.212 38.7508 154.696 38.8075 155.194 38.8075C155.656 38.8075 156.044 38.7464 156.358 38.6243C156.672 38.5022 156.908 38.3277 157.065 38.1009C157.222 37.8741 157.3 37.608 157.3 37.3027C157.3 36.9974 157.235 36.7401 157.104 36.5307C156.973 36.3213 156.746 36.1294 156.424 35.9549C156.11 35.7718 155.669 35.5798 155.102 35.3792C154.701 35.2309 154.347 35.0739 154.042 34.9081C153.746 34.7337 153.497 34.5374 153.296 34.3193C153.096 34.1012 152.943 33.8526 152.838 33.5735C152.742 33.2943 152.694 32.9716 152.694 32.6052C152.694 32.108 152.821 31.6849 153.074 31.3359C153.327 30.9783 153.676 30.7035 154.121 30.5116C154.574 30.3197 155.093 30.2237 155.678 30.2237C156.192 30.2237 156.664 30.2717 157.091 30.3676C157.518 30.4636 157.907 30.5901 158.256 30.7471L157.889 31.7547C157.566 31.6151 157.213 31.4973 156.829 31.4014C156.454 31.3054 156.062 31.2574 155.652 31.2574C155.259 31.2574 154.932 31.3141 154.67 31.4275C154.409 31.5409 154.212 31.7023 154.081 31.9117C153.951 32.1123 153.885 32.3478 153.885 32.6183C153.885 32.9323 153.951 33.194 154.081 33.4034C154.212 33.6127 154.426 33.8003 154.723 33.966C155.019 34.1318 155.42 34.3106 155.926 34.5025C156.476 34.7031 156.938 34.9212 157.313 35.1568C157.697 35.3836 157.985 35.6584 158.177 35.9811C158.378 36.3039 158.478 36.7095 158.478 37.198ZM165.581 39.6973H160.36V30.3546H165.581V31.3883H161.538V34.3062H165.345V35.3269H161.538V38.6635H165.581V39.6973Z" fill="white"/>
<path fill-rule="evenodd" clip-rule="evenodd" d="M23.0536 4.28111L37.31 15.2205H23.0536V4.28111ZM20.627 2.41905L18.7305 0.963867L6.97559 9.9111V12.2583C6.97534 12.9819 6.68769 13.6758 6.17589 14.1873L5.12565 15.2205H15.1962C15.177 15.1153 15.167 15.0068 15.167 14.896C15.167 13.9028 15.9721 13.0976 16.9653 13.0976C17.9585 13.0976 18.7637 13.9028 18.7637 14.896C18.7637 15.0068 18.7536 15.1153 18.7344 15.2205H20.627V2.41905ZM5.12531 15.2209H15.1963C15.3148 15.8703 15.782 16.3979 16.3969 16.6026C16.385 16.6493 16.3789 16.6978 16.3789 16.7468V19.4325C16.3805 20.1282 16.6579 20.7949 17.1504 21.2863C17.6429 21.7777 18.3102 22.0536 19.0059 22.0536H20.627L20.627 40.7009L18.6501 40.7009V37.4714C18.6501 37.3773 18.6127 37.287 18.5462 37.2205C18.4796 37.1539 18.3894 37.1166 18.2953 37.1166C18.2012 37.1166 18.1109 37.1539 18.0444 37.2205C17.9778 37.287 17.9404 37.3773 17.9404 37.4714V40.7009H16.9792V35.7037C16.9792 35.6096 16.9418 35.5194 16.8753 35.4528C16.8087 35.3863 16.7185 35.3489 16.6244 35.3489C16.5303 35.3489 16.44 35.3863 16.3735 35.4528C16.3069 35.5194 16.2695 35.6096 16.2695 35.7037V40.7009H15.3073V37.4714C15.3073 37.3773 15.27 37.287 15.2034 37.2205C15.1369 37.1539 15.0466 37.1166 14.9525 37.1166C14.8584 37.1166 14.7681 37.1539 14.7016 37.2205C14.635 37.287 14.5977 37.3773 14.5977 37.4714V40.7009H13.7536V34.0792C13.7536 33.985 13.7163 33.8948 13.6497 33.8282C13.5832 33.7617 13.4929 33.7243 13.3988 33.7243C13.3047 33.7243 13.2144 33.7617 13.1479 33.8282C13.0813 33.8948 13.0439 33.985 13.0439 34.0792V40.7009L0 40.7009V15.2209H3.62534C3.60986 15.2547 3.59507 15.2889 3.58098 15.3234C3.44583 15.6545 3.37752 16.0091 3.38 16.3667V18.5521C3.38 18.5839 3.38249 18.6154 3.38734 18.6464C2.65142 18.8971 2.12207 19.5942 2.12207 20.415C2.12207 21.4467 2.9584 22.283 3.99007 22.283C5.02173 22.283 5.85806 21.4467 5.85806 20.415C5.85806 19.5945 5.32907 18.8976 4.59354 18.6466C4.59841 18.6155 4.60092 18.584 4.60092 18.5521V16.3667C4.60083 16.168 4.64017 15.9712 4.71667 15.7878C4.79316 15.6045 4.90529 15.4381 5.04655 15.2984L5.12531 15.2209ZM20.627 20.8783V15.2209H18.7344C18.616 15.8694 18.1498 16.3966 17.5361 16.6018C17.5481 16.6488 17.5543 16.6975 17.5543 16.7468V19.4325C17.5543 19.8175 17.7072 20.1867 17.9795 20.459C18.2517 20.7312 18.6209 20.8841 19.0059 20.8841L20.627 20.8783ZM3.62549 15.2205C3.75842 14.9299 3.94183 14.6648 4.16749 14.4376L5.31515 13.2839C5.59506 13.001 5.75286 12.6196 5.75468 12.2217V10.8404L0 15.2205H3.62549ZM23.0536 40.7009L37.31 40.7009V15.2209H23.0536L23.0536 40.7009ZM32.148 25.2448C32.9906 24.9376 33.5922 24.1293 33.5922 23.1805C33.5922 21.9674 32.6088 20.984 31.3957 20.984C30.1826 20.984 29.1992 21.9674 29.1992 23.1805C29.1992 24.21 29.9075 25.074 30.8633 25.312V30.7184H29.116C28.9457 30.7184 28.7823 30.7861 28.6618 30.9065C28.5413 31.027 28.4737 31.1904 28.4737 31.3608V40.6366H29.7584V32.0031H31.5057C31.676 32.0031 31.8394 31.9355 31.9599 31.815C32.0804 31.6945 32.148 31.5311 32.148 31.3608V25.2448ZM9.00117 24.6237C7.94116 24.6237 7.08185 25.483 7.08185 26.543C7.08185 27.3264 7.55115 28.0001 8.22392 28.2985C8.21033 28.3501 8.20328 28.4037 8.20328 28.4581V30.7035C8.20337 30.9077 8.16294 31.1098 8.08435 31.2982C8.00575 31.4867 7.89054 31.6576 7.7454 31.8012L6.58503 32.9427C6.05918 33.4683 5.76362 34.1813 5.76337 34.9248V40.5698L7.01782 40.6074V34.9624C7.01969 34.5535 7.18183 34.1617 7.46942 33.871L8.64861 32.6856C8.90756 32.4249 9.11237 32.1156 9.25123 31.7754C9.3901 31.4352 9.46028 31.0709 9.45773 30.7035V28.4581C9.45773 28.4414 9.45706 28.4247 9.45575 28.4082C10.2963 28.2041 10.9205 27.4464 10.9205 26.543C10.9205 25.483 10.0612 24.6237 9.00117 24.6237Z" fill="white"/>
</svg>
