<svg width="101" height="101" viewBox="0 0 101 101" fill="none" xmlns="http://www.w3.org/2000/svg">
<path d="M0.729736 88.2565V76.243H24.7568V100.27H0.729736V88.2565ZM21.3243 88.2565V79.6754H4.16217V96.8376H21.3243V88.2565ZM7.5946 88.2565V83.1079H17.8919V93.4052H7.5946V88.2565ZM31.6216 98.5538V96.8376H28.1892V89.9727H31.6216V79.6754H35.0541V76.243H28.1892V72.8106H14.4595V69.3781H17.8919V65.9457H11.027V72.8106H7.5946V69.3781H0.729736V65.9457H7.5946V59.0808H4.16217V62.5133H0.729736V55.6484H7.5946V59.0808H11.027V62.5133H14.4595V59.0808H17.8919V62.5133H24.7568V59.0808H21.3243V55.6484H11.027V52.216H21.3243V48.7835H11.027V45.3511H7.5946V48.7835H0.729736V38.4862H4.16217V41.9187H24.7568V38.4862H21.3243V35.0538H14.4595V38.4862H11.027V35.0538H4.16217V28.1889H11.027V35.0538H14.4595V31.6214H21.3243V28.1889H24.7568V31.6214H21.3243V35.0538H24.7568V38.4862H28.1892V31.6214H31.6216V28.1889H28.1892V17.8917H35.0541V21.3241H38.4865V24.7565H35.0541V28.1889H38.4865V48.7835H31.6216V45.3511H28.1892V48.7835H24.7568V52.216H21.3243V55.6484H24.7568V59.0808H28.1892V62.5133H35.0541V59.0808H31.6216V55.6484H28.1892V52.216H35.0541V59.0808H38.4865V52.216H41.9189V59.0808H45.3514V48.7835H48.7838V45.3511H52.2162V48.7835H48.7838V52.216H52.2162V55.6484H62.5135V52.216H59.0811V48.7835H55.6487V41.9187H52.2162V38.4862H55.6487V35.0538H59.0811V31.6214H55.6487V28.1889H52.2162V35.0538H48.7838V31.6214H45.3514V35.0538H41.9189V31.6214H45.3514V28.1889H41.9189V17.8917H38.4865V14.4592H41.9189V17.8917H45.3514V4.16192H48.7838V11.0268H55.6487V7.59436H52.2162V0.729492H59.0811V4.16192H55.6487V7.59436H62.5135V4.16192H65.9459V0.729492H72.8108V11.0268H65.9459V7.59436H62.5135V14.4592H65.9459V24.7565H69.3784V21.3241H72.8108V38.4862H79.6757V35.0538H76.2432V28.1889H83.1081V38.4862H89.973V35.0538H86.5405V28.1889H89.973V35.0538H93.4054V31.6214H100.27V38.4862H96.8378V35.0538H93.4054V38.4862H89.973V48.7835H93.4054V52.216H89.973V55.6484H83.1081V59.0808H79.6757V62.5133H72.8108V59.0808H69.3784V55.6484H65.9459V62.5133H69.3784V65.9457H79.6757V69.3781H86.5405V65.9457H83.1081V62.5133H86.5405V59.0808H89.973V62.5133H93.4054V65.9457H96.8378V59.0808H93.4054V55.6484H100.27V65.9457H96.8378V72.8106H100.27V79.6754H96.8378V89.9727H100.27V93.4052H89.973V100.27H79.6757V96.8376H86.5405V93.4052H79.6757V86.5403H76.2432V93.4052H72.8108V96.8376H76.2432V100.27H69.3784V89.9727H65.9459V96.8376H62.5135V93.4052H59.0811V79.6754H62.5135V89.9727H65.9459V79.6754H69.3784V72.8106H65.9459V69.3781H62.5135V65.9457H65.9459V62.5133H62.5135V59.0808H59.0811V72.8106H62.5135V76.243H55.6487V83.1079H52.2162V89.9727H55.6487V93.4052H52.2162V96.8376H59.0811V100.27H52.2162V96.8376H48.7838V93.4052H45.3514V100.27H31.6216V98.5538ZM41.9189 93.4052V89.9727H45.3514V79.6754H38.4865V83.1079H41.9189V86.5403H35.0541V89.9727H31.6216V93.4052H35.0541V96.8376H41.9189V93.4052ZM89.973 89.9727V86.5403H93.4054V79.6754H96.8378V76.243H93.4054V65.9457H89.973V76.243H93.4054V79.6754H89.973V83.1079H86.5405V93.4052H89.973V89.9727ZM72.8108 88.2565V86.5403H69.3784V89.9727H72.8108V88.2565ZM52.2162 81.3916V79.6754H48.7838V83.1079H52.2162V81.3916ZM83.1081 77.9592V72.8106H72.8108V83.1079H83.1081V77.9592ZM76.2432 77.9592V76.243H79.6757V79.6754H76.2432V77.9592ZM48.7838 74.5268V72.8106H55.6487V69.3781H48.7838V65.9457H45.3514V69.3781H48.7838V72.8106H41.9189V69.3781H38.4865V72.8106H35.0541V69.3781H31.6216V65.9457H28.1892V62.5133H24.7568V65.9457H21.3243V69.3781H24.7568V65.9457H28.1892V69.3781H31.6216V72.8106H35.0541V76.243H48.7838V74.5268ZM38.4865 64.2295V62.5133H35.0541V65.9457H38.4865V64.2295ZM55.6487 62.5133V59.0808H48.7838V62.5133H52.2162V65.9457H55.6487V62.5133ZM76.2432 57.3646V55.6484H72.8108V59.0808H76.2432V57.3646ZM83.1081 53.9322V52.216H86.5405V41.9187H83.1081V45.3511H79.6757V48.7835H76.2432V45.3511H69.3784V41.9187H65.9459V38.4862H69.3784V28.1889H65.9459V24.7565H62.5135V21.3241H59.0811V24.7565H55.6487V14.4592H59.0811V17.8917H62.5135V14.4592H59.0811V11.0268H55.6487V14.4592H52.2162V24.7565H55.6487V28.1889H59.0811V24.7565H62.5135V35.0538H59.0811V38.4862H55.6487V41.9187H59.0811V48.7835H62.5135V45.3511H69.3784V48.7835H72.8108V52.216H79.6757V55.6484H83.1081V53.9322ZM79.6757 50.4998V48.7835H83.1081V52.216H79.6757V50.4998ZM24.7568 47.0673V45.3511H28.1892V41.9187H24.7568V45.3511H21.3243V48.7835H24.7568V47.0673ZM35.0541 40.2025V38.4862H31.6216V41.9187H35.0541V40.2025ZM35.0541 23.0403V21.3241H31.6216V24.7565H35.0541V23.0403ZM48.7838 21.3241V17.8917H45.3514V24.7565H48.7838V21.3241ZM69.3784 5.87814V4.16192H65.9459V7.59436H69.3784V5.87814ZM96.8378 98.5538V96.8376H100.27V100.27H96.8378V98.5538ZM96.8378 48.7835V45.3511H93.4054V41.9187H96.8378V45.3511H100.27V52.216H96.8378V48.7835ZM0.729736 12.743V0.729492H24.7568V24.7565H0.729736V12.743ZM21.3243 12.743V4.16192H4.16217V21.3241H21.3243V12.743ZM7.5946 12.743V7.59436H17.8919V17.8917H7.5946V12.743ZM76.2432 12.743V0.729492H100.27V24.7565H76.2432V12.743ZM96.8378 12.743V4.16192H79.6757V21.3241H96.8378V12.743ZM83.1081 12.743V7.59436H93.4054V17.8917H83.1081V12.743ZM28.1892 12.743V11.0268H31.6216V14.4592H28.1892V12.743ZM35.0541 9.31057V7.59436H31.6216V0.729492H35.0541V4.16192H38.4865V0.729492H41.9189V4.16192H38.4865V11.0268H35.0541V9.31057Z" fill="#A50101"/>
</svg>
