<svg width="162" height="47" viewBox="0 0 162 47" fill="none" xmlns="http://www.w3.org/2000/svg">
<path d="M154.599 5.78687L154.934 9.67786L155.661 5.78687H154.599Z" fill="#FFAC11"/>
<path d="M157.898 7.97876H159.297L156.277 10.8291L157.898 7.97876Z" fill="#FFAC11"/>
<path d="M158.01 12.0894L161.311 10.3904V12.0894H158.01Z" fill="#FFAC11"/>
<path d="M162 36.3848L158.016 36.4798L161.936 37.4247L162 36.3848Z" fill="#FFAC11"/>
<path d="M159.569 39.4816L159.485 40.8496L156.763 37.7239L159.569 39.4816Z" fill="#FFAC11"/>
<path d="M155.374 39.3442L156.907 42.6741L155.177 42.5724L155.374 39.3442Z" fill="#FFAC11"/>
<path d="M19.7156 0.371938L29.5067 11.2589C29.7499 11.529 30.1135 11.6649 30.4786 11.6218L45.1812 9.88936C46.1008 9.78099 46.7484 10.7534 46.2765 11.5342L38.7366 24.0237C38.5495 24.334 38.5298 24.7148 38.6843 25.0414L44.9085 38.2086C45.2979 39.0325 44.5548 39.9358 43.6503 39.7377L29.1992 36.5696C28.8402 36.491 28.4644 36.5904 28.1948 36.8354L17.3394 46.7061C16.6607 47.3237 15.554 46.9095 15.4669 46.0062L14.0754 31.5593C14.0406 31.2008 13.8285 30.8816 13.5073 30.7057L0.573401 23.6385C-0.235584 23.1961 -0.176501 22.0374 0.674145 21.6767L14.2655 15.9159C14.6034 15.7726 14.8473 15.4757 14.9185 15.1224L17.781 0.884848C17.9598 -0.00587951 19.1028 -0.308727 19.7156 0.371938Z" fill="#FFAC11"/>
<path d="M42.0347 24.1461L49.3867 12.0894C82.396 12.0894 115.405 12.0894 148.414 12.0894C154.971 12.5473 160.136 17.6356 160.568 23.7044C161.038 30.3307 155.746 36.4693 148.565 37.0839C115.155 37.0839 81.7461 37.0839 48.3369 37.0839L42.0347 24.1461Z" fill="url(#paint0_linear_55_31)"/>
<path d="M18.6642 25.7748L20.3367 30.8171C20.6851 31.3983 21.4229 31.6024 21.9766 31.3211C22.4516 31.0799 22.7129 30.5209 22.5879 29.9657C21.9766 28.2429 21.3661 26.5201 20.7548 24.7973C20.3019 24.3519 19.6125 24.2873 19.1467 24.608C18.7839 24.8589 18.5983 25.3131 18.6642 25.7748Z" fill="white"/>
<path d="M21.2836 24.2642C21.7381 23.8233 22.9205 22.5547 23.1757 20.5884C23.303 19.6072 23.1568 18.7825 23.0068 18.2362C22.366 17.2987 22.4084 16.2083 22.9121 15.7407C23.5242 15.1713 25.0619 15.2953 25.9595 16.5735C26.1337 16.8043 26.3155 17.0894 26.4738 17.4301C26.8828 18.3097 26.9306 19.1269 26.9131 19.6376C26.9646 19.6866 27.0737 19.7771 27.2396 19.818C27.5108 19.8848 27.732 19.7697 27.7842 19.74C28.269 19.547 28.7538 19.354 29.2386 19.1611C29.9991 18.7714 30.8846 18.9547 31.3171 19.5196C31.7845 20.1297 31.5087 20.9054 31.486 20.9655C32.0405 20.9618 32.5488 21.2535 32.7942 21.7189C33.0805 22.2623 32.9593 22.9496 32.4866 23.3979C32.5313 23.4195 33.2403 23.7765 33.3237 24.5737C33.4093 25.3939 32.7495 25.8912 32.7177 25.9143C32.8366 26.0679 33.382 26.8072 33.151 27.6052C33.0691 27.8865 32.8843 28.199 32.3738 28.5716C31.0853 29.5128 29.3992 29.6182 28.5743 29.6189C27.1063 29.6583 25.6383 29.6976 24.1703 29.737C23.8582 29.829 23.6461 29.7904 23.5272 29.754C22.6804 29.4942 22.6076 28.1181 21.8062 25.702C21.5919 25.0547 21.3949 24.5455 21.2836 24.2642Z" fill="white"/>
<path d="M100.718 28.792H94.9744V33.176H93.0384V28.792H86.9904V27.144H100.718V28.792ZM90.7664 20.168V18.488H96.3664V20.168H90.7664ZM95.9024 23.848C96.521 24.0613 97.177 24.2533 97.8704 24.424C98.5637 24.584 99.3104 24.728 100.11 24.856L99.1984 26.376C97.417 26.0773 95.721 25.5653 94.1104 24.84C93.225 25.2453 92.297 25.5867 91.3264 25.864C90.3664 26.1307 89.433 26.328 88.5264 26.456L87.6304 24.92C88.5264 24.8027 89.3744 24.648 90.1744 24.456C90.985 24.2533 91.7104 24.04 92.3504 23.816C93.001 23.5813 93.5557 23.3467 94.0144 23.112C94.473 22.8667 94.809 22.6427 95.0224 22.44C94.4464 22.4613 93.8757 22.4773 93.3104 22.488C92.745 22.488 92.1744 22.4933 91.5984 22.504H88.9584V20.92H91.3264C92.4037 20.92 93.4757 20.92 94.5424 20.92C95.609 20.92 96.6864 20.9093 97.7744 20.888C98.1477 20.888 98.265 21.0907 98.1264 21.496C97.9024 21.944 97.5984 22.3653 97.2144 22.76C96.8304 23.144 96.393 23.5067 95.9024 23.848ZM109.528 24.84V23.176H111.624V18.424H113.608V29.784H111.624V24.84H109.528ZM113.896 32.968H104.328V29.048H106.328V31.288H113.896V32.968ZM103.64 20.184V18.568H108.344V20.184H103.64ZM107.64 24.632C108.077 25.0267 108.547 25.3893 109.048 25.72C109.549 26.04 110.12 26.3387 110.76 26.616L109.576 28.056C109 27.7787 108.456 27.464 107.944 27.112C107.443 26.7493 106.963 26.344 106.504 25.896C105.459 26.888 104.189 27.6987 102.696 28.328L101.576 26.936C102.397 26.6267 103.117 26.2693 103.736 25.864C104.355 25.4587 104.877 25.0533 105.304 24.648C105.731 24.232 106.067 23.8373 106.312 23.464C106.568 23.08 106.739 22.7493 106.824 22.472C106.344 22.4933 105.864 22.504 105.384 22.504C104.904 22.504 104.424 22.504 103.944 22.504H102.44V20.92H104.808C105.544 20.92 106.28 20.92 107.016 20.92C107.752 20.92 108.488 20.9093 109.224 20.888C109.032 22.232 108.504 23.48 107.64 24.632Z" fill="white"/>
<defs>
<linearGradient id="paint0_linear_55_31" x1="42.0344" y1="24.5872" x2="160.596" y2="24.5872" gradientUnits="userSpaceOnUse">
<stop offset="0.00558659" stop-color="#FFAC11"/>
<stop offset="1" stop-color="#E82229"/>
</linearGradient>
</defs>
</svg>
