<svg width="124" height="40" viewBox="0 0 124 40" fill="none" xmlns="http://www.w3.org/2000/svg">
<g clip-path="url(#clip0_347_235)">
<path d="M117.5 4.9248L117.79 8.23629L118.418 4.9248H117.5Z" fill="#FFAC11"/>
<path d="M120.352 6.79004H121.56L118.95 9.21585L120.352 6.79004Z" fill="#FFAC11"/>
<path d="M120.449 10.2883L123.301 8.84229V10.2883H120.449Z" fill="#FFAC11"/>
<path d="M123.896 30.9658L120.453 31.0467L123.841 31.8509L123.896 30.9658Z" fill="#FFAC11"/>
<path d="M121.795 33.6014L121.723 34.7657L119.37 32.1055L121.795 33.6014Z" fill="#FFAC11"/>
<path d="M118.171 33.4849L119.496 36.3188L118 36.2322L118.171 33.4849Z" fill="#FFAC11"/>
<path d="M18.0382 0.316335L26.4997 9.5818C26.7098 9.81175 27.024 9.92735 27.3395 9.89071L40.0455 8.41627C40.8402 8.32404 41.3999 9.1516 40.9921 9.81617L34.4761 20.4455C34.3144 20.7096 34.2974 21.0337 34.4309 21.3116L39.8098 32.5177C40.1463 33.2189 39.5041 33.9877 38.7225 33.8191L26.2339 31.1229C25.9236 31.0559 25.5989 31.1406 25.3659 31.349L15.9847 39.7497C15.3982 40.2753 14.4418 39.9228 14.3665 39.154L13.164 26.8588C13.1339 26.5536 12.9506 26.282 12.673 26.1323L1.49556 20.1177C0.796435 19.7412 0.847495 18.755 1.58262 18.448L13.3283 13.5452C13.6202 13.4233 13.831 13.1706 13.8925 12.8699L16.3663 0.752855C16.5208 -0.00521161 17.5086 -0.262954 18.0382 0.316335Z" fill="#FFAC11"/>
<path d="M37.5 20.6122L42.4608 10C64.7339 10 87.0065 10 109.28 10C113.704 10.4031 117.189 14.8818 117.48 20.2235C117.798 26.0559 114.227 31.459 109.381 32C86.8384 32 64.2954 32 41.7524 32L37.5 20.6122Z" fill="url(#paint0_linear_347_235)"/>
<path d="M17.1305 21.9362L18.5759 26.2275C18.877 26.7221 19.5146 26.8958 19.9931 26.6564C20.4035 26.4511 20.6294 25.9754 20.5214 25.5029C19.9931 24.0366 19.4655 22.5704 18.9372 21.1042C18.5457 20.7252 17.9501 20.6702 17.5475 20.9431C17.2339 21.1566 17.0735 21.5432 17.1305 21.9362Z" fill="white"/>
<path d="M19.3945 20.6503C19.7873 20.2751 20.8091 19.1955 21.0297 17.522C21.1397 16.6869 21.0134 15.9851 20.8838 15.5201C20.33 14.7223 20.3666 13.7943 20.8019 13.3963C21.3309 12.9117 22.6597 13.0172 23.4354 14.1051C23.586 14.3015 23.7431 14.5441 23.8799 14.8341C24.2334 15.5827 24.2746 16.2782 24.2596 16.7128C24.3041 16.7545 24.3984 16.8316 24.5417 16.8663C24.7761 16.9232 24.9672 16.8253 25.0124 16.8C25.4313 16.6357 25.8503 16.4715 26.2692 16.3072C26.9265 15.9756 27.6917 16.1316 28.0655 16.6124C28.4694 17.1316 28.2311 17.7918 28.2115 17.843C28.6906 17.8398 29.1299 18.0881 29.342 18.4842C29.5894 18.9466 29.4847 19.5316 29.0762 19.9131C29.1148 19.9314 29.7275 20.2353 29.7995 20.9138C29.8735 21.6118 29.3034 22.0351 29.2759 22.0547C29.3786 22.1854 29.85 22.8146 29.6503 23.4937C29.5796 23.7331 29.4199 23.9991 28.9787 24.3162C27.8652 25.1172 26.408 25.2069 25.6951 25.2076C24.4265 25.2411 23.1579 25.2745 21.8892 25.308C21.6195 25.3864 21.4363 25.3535 21.3335 25.3226C20.6016 25.1014 20.5388 23.9302 19.8462 21.874C19.661 21.3231 19.4908 20.8898 19.3945 20.6503Z" fill="white"/>
<path d="M76.393 19.2324L75.4665 20.7949L71.1801 18.8868L66.8937 20.7949L65.9673 19.2324L70.0878 17.4072V16.8956H66.5204V15.1396H70.1016V14.0334H72.2586V15.1396H75.8399V16.8956H72.2725V17.4072L76.393 19.2324ZM72.2448 26.2151L70.6685 26.7544C70.2814 26.8927 70.1154 26.7959 70.1154 26.4364V23.0626H65.0685V21.2374H77.2917V23.0626H72.2448V26.2151ZM85.7272 20.2556L84.3306 21.583L81.7449 19.3845L79.0625 21.7213L77.6798 20.3939L80.6802 17.8082V16.7297H78.219V14.9322H80.6664V13.826H82.8235V14.9322H85.2156V16.7297H82.8096V17.7806L85.7272 20.2556ZM88.8244 22.5509L87.2758 23.0902C86.8886 23.2285 86.7227 23.1317 86.7227 22.7722V18.8868H84.8284V17.1169H86.7227V13.9781H88.8244V22.5509ZM89.0319 26.4364H80.1272V22.2329H82.2565V24.6388H89.0319V26.4364Z" fill="white"/>
</g>
<defs>
<linearGradient id="paint0_linear_347_235" x1="37.4998" y1="21.0005" x2="117.5" y2="21.0005" gradientUnits="userSpaceOnUse">
<stop offset="0.00558659" stop-color="#FFAC11"/>
<stop offset="1" stop-color="#E82229"/>
</linearGradient>
<clipPath id="clip0_347_235">
<rect width="123" height="40" fill="white" transform="translate(0.5)"/>
</clipPath>
</defs>
</svg>
