<svg width="60" height="60" viewBox="0 0 60 60" fill="none" xmlns="http://www.w3.org/2000/svg">
<path d="M33.6873 49.0364H33.0256C23.125 49.0364 13.2261 49.0364 3.3255 49.0364C1.61325 49.0364 0.497672 48.2747 0.139036 46.8512C0.0723871 46.5862 0.0517576 46.3038 0.0517576 46.0292C0.0485839 34.3101 0.0485839 22.591 0.0485839 10.8719C0.0485839 10.7163 0.0485839 10.5624 0.0485839 10.3656H49.1166V19.3601C48.9023 19.3601 48.6929 19.3601 48.4818 19.3601C45.2351 19.3601 41.9867 19.3569 38.7399 19.3601C35.6836 19.3648 33.6905 21.3596 33.6889 24.4207C33.6857 32.3582 33.6889 40.2974 33.6889 48.235V49.0348L33.6873 49.0364ZM18.7563 27.8198C14.7971 27.8198 10.8394 27.8198 6.88011 27.8198C6.68175 27.8198 6.47863 27.8023 6.28821 27.842C5.81055 27.9404 5.50746 28.2212 5.5027 28.737C5.49794 29.2511 5.7804 29.5463 6.2644 29.6478C6.45483 29.6875 6.65795 29.6796 6.85472 29.6796C14.7526 29.6796 22.6505 29.6812 30.5485 29.6796C30.7833 29.6796 31.0277 29.6764 31.253 29.6193C31.7148 29.4987 31.9322 29.1702 31.9195 28.6941C31.9052 28.2038 31.626 27.9292 31.1658 27.8436C30.9547 27.8039 30.7325 27.8213 30.5151 27.8213C26.5955 27.8213 22.6759 27.8213 18.7579 27.8213L18.7563 27.8198ZM18.65 35.9287C22.6093 35.9287 26.5686 35.9287 30.5294 35.9287C30.7468 35.9287 30.969 35.9414 31.18 35.9017C31.6466 35.8129 31.91 35.5177 31.9164 35.0369C31.9227 34.5291 31.645 34.2228 31.161 34.1197C30.9896 34.0832 30.8055 34.1038 30.6278 34.1038C22.6886 34.1038 14.7495 34.1038 6.81188 34.1038C6.65319 34.1038 6.49291 34.0927 6.3374 34.1133C5.85657 34.1736 5.50111 34.5735 5.5027 35.0369C5.5027 35.5225 5.83277 35.8684 6.35803 35.9192C6.5548 35.9382 6.75316 35.9287 6.95152 35.9287C10.8521 35.9287 14.751 35.9287 18.6516 35.9287H18.65ZM18.65 42.2001C22.6093 42.2001 26.5686 42.2001 30.5278 42.2001C30.7452 42.2001 30.9706 42.2223 31.1785 42.1763C31.6625 42.0684 31.937 41.7573 31.9132 41.2464C31.8926 40.7703 31.6291 40.4751 31.1578 40.3958C30.9642 40.3625 30.7627 40.3752 30.5659 40.3752C22.6664 40.3752 14.7669 40.3752 6.869 40.3752C6.67064 40.3752 6.46752 40.3577 6.2771 40.3974C5.79468 40.4989 5.50428 40.8036 5.50428 41.3051C5.50428 41.8145 5.80579 42.1049 6.29614 42.1842C6.48974 42.216 6.69127 42.2001 6.88963 42.2001C10.8092 42.2001 14.7288 42.2001 18.65 42.2001ZM21.3303 19.1665C20.3067 20.0377 19.3213 20.8613 18.3517 21.7039C17.8962 22.099 17.855 22.5862 18.1993 23.0067C18.5532 23.4384 19.0467 23.5003 19.5022 23.1083C20.7479 22.0387 21.9841 20.9565 23.2028 19.8552C23.69 19.4156 23.6646 18.7412 23.1996 18.2731C23.0187 18.0906 22.8156 17.9319 22.622 17.7621C21.5953 16.8623 20.5765 15.953 19.5418 15.0644C19.0547 14.6455 18.6024 14.6629 18.2279 15.066C17.8582 15.4659 17.8978 15.9943 18.3358 16.4323C18.504 16.5989 18.6865 16.7528 18.8611 16.9131C19.6767 17.6574 20.4924 18.4032 21.3303 19.1681V19.1665ZM7.7037 18.9856C7.91952 18.7967 8.09249 18.6412 8.26863 18.4905C9.08112 17.7986 9.90788 17.121 10.7029 16.4101C11.1345 16.0245 11.1647 15.5119 10.8489 15.1422C10.4855 14.7169 9.94597 14.6708 9.48895 15.0676C8.27816 16.1149 7.07371 17.1718 5.88038 18.2382C5.3694 18.6952 5.34084 19.2363 5.82642 19.6743C7.05943 20.7867 8.31148 21.8769 9.56829 22.9623C9.98882 23.3257 10.4236 23.2178 10.7918 22.8655C11.1726 22.5021 11.1234 22.08 10.8314 21.6912C10.6918 21.504 10.4966 21.358 10.3157 21.204C9.46197 20.4757 8.60347 19.7505 7.7037 18.9872V18.9856ZM17.0584 14.7914C17.0362 14.2773 16.8219 13.9282 16.3728 13.8108C15.8666 13.6775 15.4683 13.8949 15.2652 14.3725C14.9954 15.0073 14.7637 15.6595 14.5162 16.3037C13.6751 18.4952 12.8309 20.6851 11.9946 22.8782C11.7344 23.559 11.9312 24.0208 12.5262 24.2064C13.0801 24.3778 13.5133 24.1191 13.7767 23.432C14.8256 20.7073 15.8682 17.9811 16.9108 15.2548C16.9743 15.0898 17.0155 14.9184 17.0552 14.793L17.0584 14.7914Z" fill="url(#paint0_linear_8_61)"/>
<path d="M49.1387 8.43587H0.0485163C0.0485163 7.50119 0.0485163 6.59667 0.0485163 5.69215C0.0485163 4.72256 0.0342344 3.75298 0.0548638 2.78339C0.0866015 1.25998 1.29898 0.053954 2.82239 0.00317376C2.90173 0 2.98108 0 3.06042 0C17.3916 0 31.7227 0 46.0554 0.00158688C47.5661 0.00158688 48.6579 0.756943 49.0483 2.05025C49.0879 2.18196 49.134 2.31843 49.1355 2.45332C49.1419 4.42899 49.1387 6.40466 49.1387 8.43587ZM35.7058 3.32134C35.0329 3.32134 34.3601 3.32134 33.6872 3.32134C31.5116 3.32134 29.3344 3.315 27.1588 3.32452C26.3527 3.32769 25.9226 3.92753 26.2083 4.61941C26.4257 5.14467 26.8875 5.14943 27.3556 5.14943C32.8954 5.14785 38.4336 5.14943 43.9734 5.14785C44.1321 5.14785 44.2908 5.14785 44.4479 5.1288C44.9065 5.07009 45.1461 4.78286 45.2017 4.3433C45.281 3.71648 44.8764 3.32611 44.1337 3.32452C41.3249 3.31976 38.5161 3.32293 35.7058 3.32134ZM6.61186 5.96827C7.60366 5.9635 8.33363 5.23354 8.33998 4.24332C8.34632 3.23248 7.59573 2.49141 6.5706 2.49775C5.55817 2.5041 4.80916 3.26898 4.83138 4.27506C4.85201 5.22402 5.6391 5.97303 6.61186 5.96827ZM13.5243 5.96827C14.4812 5.95874 15.254 5.18434 15.2572 4.23698C15.2588 3.2658 14.4638 2.48982 13.472 2.49775C12.4659 2.50569 11.728 3.26898 11.7518 4.28141C11.7724 5.22719 12.5627 5.97937 13.5243 5.96985V5.96827ZM22.0602 4.25602C22.0697 3.28326 21.3254 2.51521 20.3558 2.49617C19.3307 2.47712 18.5881 3.20392 18.5833 4.23063C18.5785 5.19228 19.3434 5.9635 20.3098 5.96827C21.2842 5.97461 22.0506 5.22402 22.0602 4.25602Z" fill="url(#paint1_linear_8_61)"/>
<path d="M35.593 29.7111H59.9199V51.48H35.593V29.7111ZM40.4441 45.1277C40.6107 45.4197 40.7075 45.6847 40.8821 45.8767C41.2931 46.3306 41.7406 46.7527 42.1754 47.1859C42.8371 47.8429 43.1767 47.9016 43.9289 47.3478C44.3383 47.0462 44.6684 47.0621 45.1143 47.2557C45.5967 47.4668 45.4507 47.8857 45.5443 48.2126C45.7189 48.8267 45.9855 49.0901 46.6171 49.1028C47.1915 49.114 47.766 49.106 48.3388 49.106C49.5798 49.106 49.6385 49.0711 49.9559 47.8587C50.0432 47.5239 50.1939 47.3366 50.5319 47.2002C50.9112 47.0462 51.1794 47.0859 51.5047 47.3128C52.3632 47.9095 52.6425 47.8667 53.3946 47.1161C53.7168 46.7939 54.0389 46.4718 54.3595 46.1497C55.1037 45.4038 55.1545 45.0991 54.5594 44.2597C54.3135 43.9137 54.2627 43.6376 54.4547 43.2425C54.6054 42.9346 54.7752 42.8093 55.1053 42.7569C56.1685 42.5903 56.3701 42.3332 56.3716 41.2763C56.3716 40.7225 56.3748 40.1671 56.3716 39.6133C56.3653 38.7786 56.1558 38.5104 55.3354 38.3803C54.8562 38.3041 54.5404 38.1549 54.369 37.6265C54.2198 37.1695 54.5023 36.9664 54.6753 36.6887C55.0926 36.0142 55.0752 35.6715 54.5261 35.1129C54.1103 34.6892 53.6898 34.2703 53.2661 33.8545C52.6679 33.2673 52.3108 33.2388 51.5983 33.7085C50.7398 34.275 50.1495 34.0179 49.9654 32.9992C49.8305 32.2517 49.5131 31.9772 48.7625 31.9709C48.169 31.9645 47.574 31.9693 46.9805 31.9709C45.9918 31.9709 45.7443 32.1518 45.6031 33.1198C45.5412 33.5403 45.3841 33.7355 44.9826 33.9211C44.4938 34.1465 44.2463 33.8688 43.9305 33.6672C43.264 33.242 42.9133 33.2689 42.3563 33.8164C41.9897 34.1766 41.6279 34.5432 41.2645 34.9082C40.4552 35.7191 40.4219 35.9508 41.0614 36.8902C41.2566 37.1758 41.2931 37.4059 41.1772 37.755C41.0106 38.2628 40.6504 38.3184 40.233 38.3835C39.4412 38.5041 39.1444 38.8563 39.1381 39.6593C39.1333 40.1941 39.1381 40.7289 39.1381 41.2621C39.1381 42.4141 39.2619 42.5601 40.4139 42.7712C41.0297 42.8839 41.3359 43.6075 41.0043 44.1438C40.8123 44.4549 40.6409 44.7802 40.4457 45.1261L40.4441 45.1277Z" fill="url(#paint2_linear_8_61)"/>
<path d="M35.5375 53.3857H59.9025C59.9025 54.8171 60.0215 56.2437 59.8692 57.6434C59.7121 59.0938 58.4426 59.9935 56.8969 59.9967C53.474 60.003 50.0495 59.9983 46.6266 59.9983C43.994 59.9983 41.363 59.9999 38.7303 59.9983C36.7388 59.9967 35.5566 58.8256 35.5391 56.8325C35.5296 55.7058 35.5375 54.5791 35.5375 53.3857ZM47.8232 54.7521C46.8932 54.7521 45.9617 54.7425 45.0318 54.7552C44.3622 54.7647 44.0257 55.079 44.0226 55.6566C44.0194 56.231 44.3669 56.569 45.0191 56.5722C46.8599 56.5817 48.7023 56.5817 50.5431 56.5722C51.1778 56.569 51.5555 56.212 51.5619 55.6598C51.5682 55.0932 51.2191 54.7647 50.5558 54.7552C49.6449 54.7425 48.734 54.7521 47.8232 54.7521Z" fill="url(#paint3_linear_8_61)"/>
<path d="M35.5994 27.7767C35.5994 26.3358 35.4947 24.9076 35.6296 23.5016C35.7613 22.1274 37.0625 21.1975 38.5827 21.1895C41.1963 21.1768 43.8115 21.1863 46.4251 21.1863C49.8512 21.1863 53.2773 21.1848 56.7034 21.1863C58.7806 21.1863 59.9501 22.3495 59.9549 24.4157C59.9581 25.5217 59.9549 26.6278 59.9549 27.7767H35.5994ZM47.7406 26.3628C48.669 26.3628 49.5973 26.3739 50.524 26.3596C51.2112 26.3485 51.5698 26.0057 51.5603 25.4138C51.5508 24.8489 51.2016 24.5109 50.5463 24.5061C48.7293 24.4918 46.9139 24.4934 45.0969 24.5061C44.4241 24.5109 44.0321 24.8711 44.0226 25.4344C44.0131 26.0152 44.3796 26.3517 45.0763 26.3628C45.9649 26.3755 46.8536 26.3659 47.7422 26.3659L47.7406 26.3628Z" fill="url(#paint4_linear_8_61)"/>
<path d="M48.1531 47.3573H47.4517C47.4089 47.3145 47.3581 47.2875 47.3581 47.2605C47.339 46.2751 46.8249 45.7435 45.8632 45.6149C45.7696 45.6022 45.6807 45.5435 45.5903 45.5022C44.7905 45.1383 44.0076 45.1653 43.2417 45.5832C43.1148 45.407 42.9767 45.2166 42.8053 44.9802C42.8577 44.9008 42.9577 44.7342 43.0751 44.5803C43.3687 44.1899 43.375 43.7948 43.1703 43.3568C42.937 42.8585 42.7942 42.311 42.5149 41.8429C42.3324 41.5366 42.0119 41.197 41.6913 41.1129C41.1169 40.9622 40.9407 40.7003 41.0962 40.1529C41.1169 40.1322 41.1423 40.0846 41.1708 40.0815C42.1103 40.0148 42.718 39.5863 42.8355 38.5945C42.8513 38.4628 42.9196 38.3264 42.9973 38.2153C43.5258 37.4694 43.5813 36.7569 42.7403 36.0349C42.9973 35.8667 43.2068 35.7286 43.4179 35.589C44.178 36.3269 44.2335 36.3332 45.2666 35.8223C45.4792 35.7175 45.6887 35.5811 45.9156 35.5382C46.7075 35.3875 47.1708 34.9812 47.2914 34.1402C47.3152 33.9688 47.7643 33.8593 48.1134 33.6689C48.169 34.0481 48.2007 34.237 48.2229 34.4274C48.2848 34.9606 48.572 35.2827 49.0973 35.4176C49.402 35.4954 49.7305 35.5652 49.9844 35.735C50.7556 36.2491 51.4776 36.3332 52.1854 35.5668C52.3869 35.7588 52.5535 35.9175 52.7535 36.1079C52.636 36.2872 52.5393 36.4523 52.425 36.6062C52.133 36.9966 52.1362 37.3964 52.3314 37.8313C52.5646 38.3517 52.7059 38.923 52.9979 39.4039C53.1788 39.7006 53.5469 39.9085 53.8691 40.0862C54.0595 40.1909 54.3245 40.1624 54.58 40.1973V40.9828C54.3467 41.0225 54.1357 41.0669 53.923 41.0923C53.4533 41.1463 53.1819 41.4144 53.0471 41.8556C52.9487 42.1761 52.8535 42.4999 52.7154 42.803C52.187 43.9566 52.1806 43.9534 52.8408 45.115C52.6821 45.2563 52.5091 45.4102 52.3044 45.5927C52.1251 45.4721 51.9632 45.2896 51.7728 45.2499C51.411 45.1738 51.0095 45.0881 50.6667 45.1738C50.1193 45.3118 49.5781 45.5372 49.091 45.8212C48.7815 46.0021 48.5403 46.3338 48.334 46.6416C48.2118 46.8241 48.215 47.0907 48.1547 47.3541L48.1531 47.3573ZM51.6506 40.5305C51.6443 38.4041 49.9209 36.6903 47.7897 36.6919C45.6712 36.6919 43.9241 38.4295 43.9177 40.5369C43.9114 42.657 45.7125 44.447 47.8246 44.4248C49.9336 44.4025 51.6569 42.6474 51.6506 40.5305Z" fill="url(#paint5_linear_8_61)"/>
<path d="M47.704 42.5569C46.498 42.5251 45.7505 41.7127 45.7807 40.4733C45.8077 39.3879 46.7487 38.4913 47.8325 38.5167C48.937 38.5437 49.8685 39.5228 49.8241 40.6098C49.778 41.7269 48.8402 42.587 47.704 42.5569Z" fill="url(#paint6_linear_8_61)"/>
<defs>
<linearGradient id="paint0_linear_8_61" x1="0.0437012" y1="30" x2="59.9563" y2="30" gradientUnits="userSpaceOnUse">
<stop stop-color="#2250B5"/>
<stop offset="1" stop-color="#289BE3"/>
</linearGradient>
<linearGradient id="paint1_linear_8_61" x1="0.0437012" y1="30" x2="59.9563" y2="30" gradientUnits="userSpaceOnUse">
<stop stop-color="#2250B5"/>
<stop offset="1" stop-color="#289BE3"/>
</linearGradient>
<linearGradient id="paint2_linear_8_61" x1="0.0437012" y1="30" x2="59.9563" y2="30" gradientUnits="userSpaceOnUse">
<stop stop-color="#2250B5"/>
<stop offset="1" stop-color="#289BE3"/>
</linearGradient>
<linearGradient id="paint3_linear_8_61" x1="0.0437012" y1="30" x2="59.9563" y2="30" gradientUnits="userSpaceOnUse">
<stop stop-color="#2250B5"/>
<stop offset="1" stop-color="#289BE3"/>
</linearGradient>
<linearGradient id="paint4_linear_8_61" x1="0.0437012" y1="30" x2="59.9563" y2="30" gradientUnits="userSpaceOnUse">
<stop stop-color="#2250B5"/>
<stop offset="1" stop-color="#289BE3"/>
</linearGradient>
<linearGradient id="paint5_linear_8_61" x1="0.0437012" y1="30" x2="59.9563" y2="30" gradientUnits="userSpaceOnUse">
<stop stop-color="#2250B5"/>
<stop offset="1" stop-color="#289BE3"/>
</linearGradient>
<linearGradient id="paint6_linear_8_61" x1="0.0437012" y1="30" x2="59.9563" y2="30" gradientUnits="userSpaceOnUse">
<stop stop-color="#2250B5"/>
<stop offset="1" stop-color="#289BE3"/>
</linearGradient>
</defs>
</svg>
