<svg width="60" height="60" viewBox="0 0 60 60" fill="none" xmlns="http://www.w3.org/2000/svg">
<path d="M33.6876 49.0364H33.0258C23.1253 49.0364 13.2263 49.0364 3.32574 49.0364C1.61349 49.0364 0.497916 48.2747 0.13928 46.8512C0.0726312 46.5862 0.0520018 46.3038 0.0520018 46.0292C0.048828 34.3101 0.048828 22.591 0.048828 10.8719C0.048828 10.7163 0.048828 10.5624 0.048828 10.3656H49.1168V19.3601C48.9026 19.3601 48.6931 19.3601 48.4821 19.3601C45.2353 19.3601 41.987 19.3569 38.7402 19.3601C35.6839 19.3648 33.6907 21.3596 33.6891 24.4207C33.686 32.3582 33.6891 40.2974 33.6891 48.235V49.0348L33.6876 49.0364ZM18.7566 27.8198C14.7973 27.8198 10.8396 27.8198 6.88036 27.8198C6.682 27.8198 6.47888 27.8023 6.28845 27.842C5.8108 27.9404 5.5077 28.2212 5.50294 28.737C5.49818 29.2511 5.78065 29.5463 6.26465 29.6478C6.45507 29.6875 6.65819 29.6796 6.85497 29.6796C14.7529 29.6796 22.6508 29.6812 30.5487 29.6796C30.7836 29.6796 31.0279 29.6764 31.2533 29.6193C31.7151 29.4987 31.9325 29.1702 31.9198 28.6941C31.9055 28.2038 31.6262 27.9292 31.166 27.8436C30.9549 27.8039 30.7328 27.8213 30.5154 27.8213C26.5958 27.8213 22.6762 27.8213 18.7582 27.8213L18.7566 27.8198ZM18.6503 35.9287C22.6095 35.9287 26.5688 35.9287 30.5297 35.9287C30.7471 35.9287 30.9692 35.9414 31.1803 35.9017C31.6468 35.8129 31.9102 35.5177 31.9166 35.0369C31.9229 34.5291 31.6452 34.2228 31.1612 34.1197C30.9899 34.0832 30.8058 34.1038 30.628 34.1038C22.6889 34.1038 14.7497 34.1038 6.81212 34.1038C6.65343 34.1038 6.49316 34.0927 6.33764 34.1133C5.85682 34.1736 5.50136 34.5735 5.50294 35.0369C5.50294 35.5225 5.83301 35.8684 6.35827 35.9192C6.55505 35.9382 6.75341 35.9287 6.95177 35.9287C10.8523 35.9287 14.7513 35.9287 18.6518 35.9287H18.6503ZM18.6503 42.2001C22.6095 42.2001 26.5688 42.2001 30.5281 42.2001C30.7455 42.2001 30.9708 42.2223 31.1787 42.1763C31.6627 42.0684 31.9372 41.7573 31.9134 41.2464C31.8928 40.7703 31.6294 40.4751 31.1581 40.3958C30.9645 40.3625 30.7629 40.3752 30.5662 40.3752C22.6667 40.3752 14.7672 40.3752 6.86925 40.3752C6.67089 40.3752 6.46777 40.3577 6.27734 40.3974C5.79493 40.4989 5.50453 40.8036 5.50453 41.3051C5.50453 41.8145 5.80604 42.1049 6.29638 42.1842C6.48998 42.216 6.69152 42.2001 6.88988 42.2001C10.8095 42.2001 14.7291 42.2001 18.6503 42.2001ZM21.3305 19.1665C20.307 20.0377 19.3215 20.8613 18.3519 21.7039C17.8965 22.099 17.8552 22.5862 18.1996 23.0067C18.5535 23.4384 19.047 23.5003 19.5024 23.1083C20.7481 22.0387 21.9843 20.9565 23.203 19.8552C23.6902 19.4156 23.6648 18.7412 23.1999 18.2731C23.0189 18.0906 22.8158 17.9319 22.6222 17.7621C21.5955 16.8623 20.5767 15.953 19.5421 15.0644C19.0549 14.6455 18.6027 14.6629 18.2281 15.066C17.8584 15.4659 17.8981 15.9943 18.3361 16.4323C18.5043 16.5989 18.6868 16.7528 18.8613 16.9131C19.677 17.6574 20.4926 18.4032 21.3305 19.1681V19.1665ZM7.70395 18.9856C7.91976 18.7967 8.09274 18.6412 8.26888 18.4905C9.08136 17.7986 9.90813 17.121 10.7032 16.4101C11.1348 16.0245 11.1649 15.5119 10.8491 15.1422C10.4858 14.7169 9.94621 14.6708 9.48919 15.0676C8.2784 16.1149 7.07396 17.1718 5.88062 18.2382C5.36964 18.6952 5.34108 19.2363 5.82667 19.6743C7.05967 20.7867 8.31173 21.8769 9.56854 22.9623C9.98906 23.3257 10.4239 23.2178 10.792 22.8655C11.1729 22.5021 11.1237 22.08 10.8317 21.6912C10.692 21.504 10.4969 21.358 10.316 21.204C9.46221 20.4757 8.60371 19.7505 7.70395 18.9872V18.9856ZM17.0586 14.7914C17.0364 14.2773 16.8222 13.9282 16.3731 13.8108C15.8669 13.6775 15.4686 13.8949 15.2654 14.3725C14.9957 15.0073 14.764 15.6595 14.5164 16.3037C13.6754 18.4952 12.8312 20.6851 11.9949 22.8782C11.7346 23.559 11.9314 24.0208 12.5265 24.2064C13.0803 24.3778 13.5135 24.1191 13.7769 23.432C14.8259 20.7073 15.8685 17.9811 16.911 15.2548C16.9745 15.0898 17.0158 14.9184 17.0554 14.793L17.0586 14.7914Z" fill="#A50101"/>
<path d="M49.139 8.43587H0.0487605C0.0487605 7.50119 0.0487605 6.59667 0.0487605 5.69215C0.0487605 4.72256 0.0344785 3.75298 0.055108 2.78339C0.0868456 1.25998 1.29922 0.053954 2.82263 0.00317376C2.90197 0 2.98132 0 3.06066 0C17.3918 0 31.7229 0 46.0556 0.00158688C47.5664 0.00158688 48.6581 0.756943 49.0485 2.05025C49.0882 2.18196 49.1342 2.31843 49.1358 2.45332C49.1421 4.42899 49.139 6.40466 49.139 8.43587ZM35.706 3.32134C35.0332 3.32134 34.3603 3.32134 33.6875 3.32134C31.5119 3.32134 29.3347 3.315 27.1591 3.32452C26.3529 3.32769 25.9229 3.92753 26.2085 4.61941C26.4259 5.14467 26.8877 5.14943 27.3558 5.14943C32.8956 5.14785 38.4338 5.14943 43.9737 5.14785C44.1323 5.14785 44.291 5.14785 44.4481 5.1288C44.9067 5.07009 45.1464 4.78286 45.2019 4.3433C45.2813 3.71648 44.8766 3.32611 44.1339 3.32452C41.3252 3.31976 38.5164 3.32293 35.706 3.32134ZM6.61211 5.96827C7.60391 5.9635 8.33387 5.23354 8.34022 4.24332C8.34657 3.23248 7.59597 2.49141 6.57085 2.49775C5.55842 2.5041 4.80941 3.26898 4.83162 4.27506C4.85225 5.22402 5.63935 5.97303 6.61211 5.96827ZM13.5246 5.96827C14.4815 5.95874 15.2543 5.18434 15.2574 4.23698C15.259 3.2658 14.464 2.48982 13.4722 2.49775C12.4661 2.50569 11.7282 3.26898 11.752 4.28141C11.7726 5.22719 12.5629 5.97937 13.5246 5.96985V5.96827ZM22.0604 4.25602C22.0699 3.28326 21.3257 2.51521 20.3561 2.49617C19.331 2.47712 18.5883 3.20392 18.5835 4.23063C18.5788 5.19228 19.3437 5.9635 20.3101 5.96827C21.2844 5.97461 22.0509 5.22402 22.0604 4.25602Z" fill="#A50101"/>
<path d="M35.5933 29.7111H59.9202V51.48H35.5933V29.7111ZM40.4443 45.1277C40.611 45.4197 40.7078 45.6847 40.8823 45.8767C41.2933 46.3306 41.7408 46.7527 42.1756 47.1859C42.8374 47.8429 43.177 47.9016 43.9291 47.3478C44.3386 47.0462 44.6686 47.0621 45.1145 47.2557C45.597 47.4668 45.451 47.8857 45.5446 48.2126C45.7191 48.8267 45.9857 49.0901 46.6173 49.1028C47.1918 49.114 47.7662 49.106 48.3391 49.106C49.58 49.106 49.6387 49.0711 49.9561 47.8587C50.0434 47.5239 50.1941 47.3366 50.5322 47.2002C50.9114 47.0462 51.1796 47.0859 51.5049 47.3128C52.3634 47.9095 52.6427 47.8667 53.3949 47.1161C53.717 46.7939 54.0392 46.4718 54.3597 46.1497C55.104 45.4038 55.1547 45.0991 54.5597 44.2597C54.3137 43.9137 54.2629 43.6376 54.4549 43.2425C54.6057 42.9346 54.7755 42.8093 55.1056 42.7569C56.1688 42.5903 56.3703 42.3332 56.3719 41.2763C56.3719 40.7225 56.3751 40.1671 56.3719 39.6133C56.3655 38.7786 56.1561 38.5104 55.3357 38.3803C54.8564 38.3041 54.5406 38.1549 54.3692 37.6265C54.2201 37.1695 54.5025 36.9664 54.6755 36.6887C55.0929 36.0142 55.0754 35.6715 54.5263 35.1129C54.1106 34.6892 53.6901 34.2703 53.2664 33.8545C52.6681 33.2673 52.3111 33.2388 51.5985 33.7085C50.74 34.275 50.1497 34.0179 49.9656 32.9992C49.8308 32.2517 49.5134 31.9772 48.7628 31.9709C48.1693 31.9645 47.5742 31.9693 46.9807 31.9709C45.9921 31.9709 45.7445 32.1518 45.6033 33.1198C45.5414 33.5403 45.3843 33.7355 44.9828 33.9211C44.4941 34.1465 44.2465 33.8688 43.9307 33.6672C43.2642 33.242 42.9135 33.2689 42.3565 33.8164C41.99 34.1766 41.6282 34.5432 41.2648 34.9082C40.4555 35.7191 40.4221 35.9508 41.0616 36.8902C41.2568 37.1758 41.2933 37.4059 41.1775 37.755C41.0109 38.2628 40.6506 38.3184 40.2333 38.3835C39.4414 38.5041 39.1447 38.8563 39.1383 39.6593C39.1336 40.1941 39.1383 40.7289 39.1383 41.2621C39.1383 42.4141 39.2621 42.5601 40.4142 42.7712C41.0299 42.8839 41.3362 43.6075 41.0045 44.1438C40.8125 44.4549 40.6411 44.7802 40.4459 45.1261L40.4443 45.1277Z" fill="#A50101"/>
<path d="M35.5378 53.3857H59.9027C59.9027 54.8171 60.0218 56.2437 59.8694 57.6434C59.7123 59.0938 58.4428 59.9935 56.8972 59.9967C53.4743 60.003 50.0498 59.9983 46.6269 59.9983C43.9942 59.9983 41.3632 59.9999 38.7306 59.9983C36.739 59.9967 35.5568 58.8256 35.5393 56.8325C35.5298 55.7058 35.5378 54.5791 35.5378 53.3857ZM47.8234 54.7521C46.8935 54.7521 45.962 54.7425 45.0321 54.7552C44.3624 54.7647 44.026 55.079 44.0228 55.6566C44.0196 56.231 44.3672 56.569 45.0194 56.5722C46.8602 56.5817 48.7025 56.5817 50.5433 56.5722C51.1781 56.569 51.5557 56.212 51.5621 55.6598C51.5684 55.0932 51.2193 54.7647 50.556 54.7552C49.6451 54.7425 48.7343 54.7521 47.8234 54.7521Z" fill="#A50101"/>
<path d="M35.5997 27.7767C35.5997 26.3358 35.4949 24.9076 35.6298 23.5016C35.7615 22.1274 37.0628 21.1975 38.583 21.1895C41.1966 21.1768 43.8118 21.1863 46.4254 21.1863C49.8514 21.1863 53.2775 21.1848 56.7036 21.1863C58.7808 21.1863 59.9504 22.3495 59.9551 24.4157C59.9583 25.5217 59.9551 26.6278 59.9551 27.7767H35.5997ZM47.7409 26.3628C48.6692 26.3628 49.5975 26.3739 50.5243 26.3596C51.2114 26.3485 51.57 26.0057 51.5605 25.4138C51.551 24.8489 51.2019 24.5109 50.5465 24.5061C48.7295 24.4918 46.9141 24.4934 45.0971 24.5061C44.4243 24.5109 44.0323 24.8711 44.0228 25.4344C44.0133 26.0152 44.3799 26.3517 45.0765 26.3628C45.9652 26.3755 46.8538 26.3659 47.7425 26.3659L47.7409 26.3628Z" fill="#A50101"/>
<path d="M48.1534 47.3573H47.4519C47.4091 47.3145 47.3583 47.2875 47.3583 47.2605C47.3393 46.2751 46.8251 45.7435 45.8635 45.6149C45.7699 45.6022 45.681 45.5435 45.5905 45.5022C44.7907 45.1383 44.0079 45.1653 43.242 45.5832C43.115 45.407 42.9769 45.2166 42.8056 44.9802C42.8579 44.9008 42.9579 44.7342 43.0753 44.5803C43.3689 44.1899 43.3752 43.7948 43.1705 43.3568C42.9373 42.8585 42.7945 42.311 42.5152 41.8429C42.3327 41.5366 42.0121 41.197 41.6916 41.1129C41.1171 40.9622 40.941 40.7003 41.0965 40.1529C41.1171 40.1322 41.1425 40.0846 41.1711 40.0815C42.1105 40.0148 42.7183 39.5863 42.8357 38.5945C42.8516 38.4628 42.9198 38.3264 42.9976 38.2153C43.526 37.4694 43.5815 36.7569 42.7405 36.0349C42.9976 35.8667 43.207 35.7286 43.4181 35.589C44.1782 36.3269 44.2338 36.3332 45.2668 35.8223C45.4795 35.7175 45.6889 35.5811 45.9158 35.5382C46.7077 35.3875 47.1711 34.9812 47.2917 34.1402C47.3155 33.9688 47.7646 33.8593 48.1137 33.6689C48.1692 34.0481 48.201 34.237 48.2232 34.4274C48.2851 34.9606 48.5723 35.2827 49.0975 35.4176C49.4022 35.4954 49.7307 35.5652 49.9846 35.735C50.7558 36.2491 51.4779 36.3332 52.1856 35.5668C52.3871 35.7588 52.5538 35.9175 52.7537 36.1079C52.6363 36.2872 52.5395 36.4523 52.4252 36.6062C52.1333 36.9966 52.1364 37.3964 52.3316 37.8313C52.5649 38.3517 52.7061 38.923 52.9981 39.4039C53.179 39.7006 53.5472 39.9085 53.8693 40.0862C54.0597 40.1909 54.3247 40.1624 54.5802 40.1973V40.9828C54.347 41.0225 54.1359 41.0669 53.9233 41.0923C53.4535 41.1463 53.1822 41.4144 53.0473 41.8556C52.9489 42.1761 52.8537 42.4999 52.7156 42.803C52.1872 43.9566 52.1809 43.9534 52.841 45.115C52.6823 45.2563 52.5093 45.4102 52.3046 45.5927C52.1253 45.4721 51.9635 45.2896 51.773 45.2499C51.4112 45.1738 51.0097 45.0881 50.667 45.1738C50.1195 45.3118 49.5784 45.5372 49.0912 45.8212C48.7818 46.0021 48.5406 46.3338 48.3343 46.6416C48.2121 46.8241 48.2152 47.0907 48.1549 47.3541L48.1534 47.3573ZM51.6508 40.5305C51.6445 38.4041 49.9211 36.6903 47.79 36.6919C45.6715 36.6919 43.9243 38.4295 43.918 40.5369C43.9116 42.657 45.7127 44.447 47.8249 44.4248C49.9338 44.4025 51.6572 42.6474 51.6508 40.5305Z" fill="#A50101"/>
<path d="M47.7042 42.5569C46.4982 42.5251 45.7508 41.7127 45.7809 40.4733C45.8079 39.3879 46.7489 38.4913 47.8328 38.5167C48.9372 38.5437 49.8687 39.5228 49.8243 40.6098C49.7783 41.7269 48.8404 42.587 47.7042 42.5569Z" fill="#A50101"/>
</svg>
