<svg width="60" height="60" viewBox="0 0 60 60" fill="none" xmlns="http://www.w3.org/2000/svg">
<g clip-path="url(#clip0_206_181)">
<path d="M58.2419 21.2112H56.4841V19.4534C56.4841 18.4818 55.6979 17.6956 54.7263 17.6956C53.7547 17.6956 52.9685 18.4818 52.9685 19.4534V21.2112H51.2107C50.2391 21.2112 49.4529 21.9974 49.4529 22.969C49.4529 23.9406 50.2391 24.7268 51.2107 24.7268H52.9685V26.4846C52.9685 27.4562 53.7547 28.2424 54.7263 28.2424C55.6979 28.2424 56.4841 27.4562 56.4841 26.4846V24.7268H58.2419C59.2135 24.7268 59.9998 23.9406 59.9998 22.969C59.9998 21.9974 59.2135 21.2112 58.2419 21.2112Z" fill="#A50101"/>
<path d="M51.0935 14.1799C52.0643 14.1799 52.8513 13.3929 52.8513 12.4221C52.8513 11.4513 52.0643 10.6643 51.0935 10.6643C50.1227 10.6643 49.3357 11.4513 49.3357 12.4221C49.3357 13.3929 50.1227 14.1799 51.0935 14.1799Z" fill="#A50101"/>
<path d="M44.0623 24.7268C45.0331 24.7268 45.8201 23.9398 45.8201 22.969C45.8201 21.9982 45.0331 21.2112 44.0623 21.2112C43.0914 21.2112 42.3044 21.9982 42.3044 22.969C42.3044 23.9398 43.0914 24.7268 44.0623 24.7268Z" fill="#A50101"/>
<path d="M28.7571 42.8197C29.4437 42.1331 30.5562 42.1331 31.2428 42.8197L31.7578 43.3348V28.2423H28.2422V43.3348L28.7571 42.8197Z" fill="#A50101"/>
<path d="M47.5779 28.2423H35.2733V47.5781C35.2733 48.2888 34.8459 48.9308 34.1884 49.202C33.9704 49.2929 33.742 49.3359 33.5155 49.3359C33.0589 49.3359 32.6092 49.1575 32.2727 48.8209L29.9999 46.5481L27.7271 48.8209C27.2223 49.3256 26.4705 49.4749 25.8113 49.202C25.1539 48.9308 24.7264 48.2888 24.7264 47.5781V28.2423H23.7408L10.6641 35.7923V58.2421C10.6641 59.2137 11.4503 59.9999 12.4219 59.9999H47.5779C48.5495 59.9999 49.3357 59.2137 49.3357 58.2421V30.0001C49.3357 29.0285 48.5495 28.2423 47.5779 28.2423Z" fill="#A50101"/>
<path d="M43.4474 10.7743L39.932 4.6853C39.6986 4.28194 39.3141 3.98663 38.8643 3.86651C38.4163 3.74804 37.934 3.80991 37.5305 4.04159L32.1226 7.16392C32.1269 5.93744 31.8362 4.60749 31.2065 3.51765C30.2675 1.89028 28.7518 0.726493 26.9373 0.240637C25.1263 -0.241704 23.2294 0.00544284 21.6021 0.942703C19.3483 2.24559 18.0007 4.67112 18.0899 7.27349L18.102 7.64427C18.102 7.65798 18.102 7.67005 18.1038 7.68376L18.2754 12.8758L13.941 10.175C13.9393 10.1733 13.9359 10.1716 13.9341 10.1699L13.6183 9.97242C11.4073 8.59746 8.6367 8.5459 6.37945 9.84878C4.75207 10.7878 3.58829 12.3035 3.10243 14.118C2.61658 15.9325 2.8656 17.8276 3.8045 19.4549C4.4461 20.5641 5.34926 21.4265 6.38777 22.0224L0.879283 25.1352C0.0383503 25.6208 -0.249578 26.6958 0.23581 27.5367L3.86802 33.6262C4.3534 34.4669 5.42836 34.7551 6.26929 34.2697L42.8042 13.1756C43.6449 12.6903 43.9328 11.6153 43.4474 10.7743ZM11.6507 18.9836C9.9704 19.9501 7.81733 19.3755 6.8496 17.6973C5.87976 16.0184 6.4582 13.8623 8.13701 12.8942C9.26482 12.2402 10.6536 12.2676 11.7574 12.956L16.7263 16.0531L11.6507 18.9836ZM28.5132 8.06016C28.2713 8.96566 27.6899 9.72375 26.8773 10.1924L21.8002 13.1237L21.6021 7.15325C21.5592 5.85037 22.2339 4.63842 23.3599 3.9878C24.1702 3.51577 25.1177 3.3939 26.0276 3.63589C26.9339 3.87964 27.6927 4.46159 28.1613 5.27522C28.6317 6.08908 28.757 7.15208 28.5132 8.06016Z" fill="#A50101"/>
</g>
<defs>
<clipPath id="clip0_206_181">
<rect width="60" height="60" fill="white"/>
</clipPath>
</defs>
</svg>
