<svg width="60" height="60" viewBox="0 0 60 60" fill="none" xmlns="http://www.w3.org/2000/svg">
<g clip-path="url(#clip0_79_87)">
<path d="M59.7581 23.72L49.0939 5.5487C48.605 4.71562 47.5354 4.43308 46.699 4.91613L40.3079 8.60601L34.5512 6.48855C34.3393 6.41062 34.1247 6.34523 33.9085 6.29027C32.2877 5.87824 30.5696 6.10945 29.1036 6.95589L19.5876 12.45C17.4858 13.6635 16.7656 16.3512 17.9791 18.453C19.1926 20.5549 21.8803 21.275 23.9822 20.0616L34.4244 14.0326C35.5121 13.4046 36.8523 13.4046 37.94 14.0326C37.94 14.0326 58.9783 26.1832 59.0458 26.2249L59.3593 25.9669C60.0263 25.4177 60.1954 24.4652 59.7581 23.72Z" fill="url(#paint0_linear_79_87)"/>
<path d="M57.0847 29.1452L36.1822 17.0772L25.74 23.1061C24.5212 23.8098 23.1684 24.1692 21.7978 24.1692C21.1106 24.1692 20.4191 24.0788 19.7376 23.8964C17.6967 23.3495 15.9908 22.0406 14.9345 20.2107C13.878 18.3811 13.5975 16.2493 14.1444 14.2084C14.5958 12.5235 15.5677 11.0681 16.9223 10.0168L12.6124 7.52845C11.7531 7.03228 10.6535 7.3454 10.1844 8.21986L0.209036 26.8177C-0.239675 27.6544 0.0569266 28.6963 0.879231 29.1709L1.79294 29.6983L3.39665 26.9205C4.72708 24.616 7.20759 23.1845 9.87009 23.1845C11.1765 23.1845 12.467 23.5308 13.6018 24.1861C14.2547 24.5629 14.837 25.0275 15.337 25.5634C16.1452 25.2683 17.0086 25.1097 17.8924 25.1097C19.1988 25.1097 20.4892 25.456 21.6241 26.1113C23.3522 27.109 24.5884 28.7201 25.1048 30.6476C25.1617 30.8595 25.2072 31.0726 25.2452 31.2861C25.964 31.4522 26.6584 31.7243 27.3026 32.0962C29.0307 33.0938 30.2669 34.7049 30.7834 36.6324C30.8402 36.8444 30.8858 37.0575 30.9238 37.271C31.6426 37.437 32.3368 37.709 32.981 38.081C36.5484 40.1408 37.7751 44.7188 35.7157 48.2861L33.5258 52.079L38.2197 54.7891C40.1114 55.8813 42.5302 55.2331 43.6224 53.3415C44.7146 51.4497 44.0665 49.0309 42.1748 47.9387L45.2195 49.6965C47.1111 50.7887 49.53 50.1405 50.6222 48.2489C51.7144 46.3572 51.0662 43.9383 49.1745 42.8461L51.2043 44.0179C53.096 45.1101 55.515 44.462 56.607 42.5702C57.6992 40.6786 57.0511 38.2596 55.1593 37.1675L53.1296 35.9956C55.0213 37.0878 57.4401 36.4397 58.5323 34.5479C59.6245 32.6563 58.9763 30.2374 57.0847 29.1452Z" fill="url(#paint1_linear_79_87)"/>
<path d="M31.2232 41.1258C29.3316 40.0336 26.9127 40.6818 25.8205 42.5734L26.9924 40.5437C28.0846 38.6521 27.4364 36.2332 25.5448 35.141C23.6531 34.0488 21.2342 34.697 20.1421 36.5886L21.3139 34.5588C22.4061 32.6672 21.758 30.2483 19.8663 29.1561C17.9747 28.0639 15.5558 28.7121 14.4636 30.6038L13.2917 32.6334C14.3838 30.7418 13.7358 28.3229 11.844 27.2307C9.95237 26.1386 7.53351 26.7867 6.44132 28.6784L2.19327 36.0362C1.10108 37.9279 1.74925 40.3468 3.64089 41.4389C5.53253 42.5311 7.95151 41.8829 9.04358 39.9912C7.9514 41.8828 8.59956 44.3018 10.4912 45.3939C12.3828 46.4861 14.8018 45.8379 15.8939 43.9461C14.8017 45.8378 15.4499 48.2568 17.3416 49.3488C19.2333 50.441 21.6521 49.7929 22.7443 47.9011C21.6521 49.7927 22.3003 52.2117 24.1919 53.3038C26.0836 54.396 28.5026 53.7478 29.5946 51.8561L32.6708 46.528C33.7631 44.6368 33.115 42.2179 31.2232 41.1258Z" fill="url(#paint2_linear_79_87)"/>
</g>
<defs>
<linearGradient id="paint0_linear_79_87" x1="17.3896" y1="15.4526" x2="60" y2="15.4526" gradientUnits="userSpaceOnUse">
<stop stop-color="#2250B5"/>
<stop offset="1" stop-color="#289BE3"/>
</linearGradient>
<linearGradient id="paint1_linear_79_87" x1="0" y1="31.3061" x2="59.0629" y2="31.3061" gradientUnits="userSpaceOnUse">
<stop stop-color="#2250B5"/>
<stop offset="1" stop-color="#289BE3"/>
</linearGradient>
<linearGradient id="paint2_linear_79_87" x1="1.66272" y1="40.2673" x2="33.2014" y2="40.2673" gradientUnits="userSpaceOnUse">
<stop stop-color="#2250B5"/>
<stop offset="1" stop-color="#289BE3"/>
</linearGradient>
<clipPath id="clip0_79_87">
<rect width="60" height="60" fill="white"/>
</clipPath>
</defs>
</svg>
