<svg width="60" height="60" viewBox="0 0 60 60" fill="none" xmlns="http://www.w3.org/2000/svg">
<path d="M9.375 7.5C7.88316 7.5 6.45242 8.09263 5.39752 9.14752C4.34263 10.2024 3.75 11.6332 3.75 13.125V45H56.25V13.125C56.25 11.6332 55.6574 10.2024 54.6025 9.14752C53.5476 8.09263 52.1168 7.5 50.625 7.5H9.375ZM0 46.875H60C60 48.3668 59.4074 49.7976 58.3525 50.8525C57.2976 51.9074 55.8668 52.5 54.375 52.5H5.625C4.13316 52.5 2.70242 51.9074 1.64752 50.8525C0.592632 49.7976 0 48.3668 0 46.875Z" fill="#A50101"/>
</svg>
