<svg width="60" height="60" viewBox="0 0 60 60" fill="none" xmlns="http://www.w3.org/2000/svg">
<path d="M29.9966 33.6427C32.0079 33.6427 33.644 32.0065 33.644 29.9952C33.644 27.984 32.0079 26.3478 29.9966 26.3478C27.9853 26.3478 26.3491 27.984 26.3491 29.9952C26.3491 32.0065 27.9854 33.6427 29.9966 33.6427Z" fill="#A50101"/>
<path d="M35.4916 38.6221L32.6169 36.6598C31.8047 36.9803 30.9213 37.1583 29.9966 37.1583C29.0719 37.1583 28.1885 36.9802 27.3763 36.6598L24.5017 38.6222C23.5675 39.2599 23.0098 40.3159 23.0098 41.447V43.2708C25.0971 44.3726 27.4753 44.9972 29.9996 44.9972C32.5216 44.9972 34.8976 44.3738 36.9836 43.274V41.447C36.9836 40.3158 36.4257 39.2598 35.4916 38.6221Z" fill="#A50101"/>
<path d="M30 15.0029C21.7173 15.0029 15.0029 21.7173 15.0029 30C15.0029 34.2107 16.7389 38.0153 19.5334 40.7392C19.7402 38.7184 20.822 36.8775 22.5198 35.7184L24.3882 34.4429C23.4165 33.2201 22.8339 31.6748 22.8339 29.9952C22.8339 26.0454 26.0471 22.8321 29.997 22.8321C33.9468 22.8321 37.16 26.0454 37.16 29.9952C37.16 31.6748 36.5774 33.2202 35.6057 34.4429L37.4741 35.7184C39.1734 36.8784 40.2557 38.7217 40.461 40.7446C43.2587 38.0203 44.9971 34.2134 44.9971 29.9999C44.9971 21.7173 38.2827 15.0029 30 15.0029Z" fill="#A50101"/>
<path d="M28.2423 6.72973V12.3667H31.7579V6.72973L33.7497 8.72144L36.2355 6.23555L30.0001 0L23.7646 6.23555L26.2504 8.72144L28.2423 6.72973Z" fill="#A50101"/>
<path d="M31.7579 53.2703V47.6333H28.2423V53.2703L26.2504 51.2785L23.7646 53.7644L30.0001 60L36.2355 53.7644L33.7497 51.2785L31.7579 53.2703Z" fill="#A50101"/>
<path d="M9.69725 22.6079L8.96822 19.8871L13.85 22.7057L15.6078 19.661L10.726 16.8425L13.4469 16.1134L12.5369 12.7177L4.01904 15L6.3015 23.5179L9.69725 22.6079Z" fill="#A50101"/>
<path d="M50.3027 37.392L51.0317 40.1129L46.1499 37.2943L44.3921 40.3389L49.2739 43.1574L46.553 43.8865L47.463 47.2823L55.9809 44.9999L53.6984 36.4821L50.3027 37.392Z" fill="#A50101"/>
<path d="M13.85 37.2943L8.96822 40.1129L9.69725 37.392L6.3015 36.4821L4.01904 44.9999L12.5369 47.2823L13.4469 43.8865L10.726 43.1574L15.6078 40.3389L13.85 37.2943Z" fill="#A50101"/>
<path d="M46.1499 22.7057L51.0317 19.8871L50.3027 22.6079L53.6984 23.5179L55.9809 15L47.463 12.7177L46.553 16.1134L49.2739 16.8425L44.3921 19.661L46.1499 22.7057Z" fill="#A50101"/>
</svg>
