<svg width="239" height="80" viewBox="0 0 239 80" fill="none" xmlns="http://www.w3.org/2000/svg">
<path d="M94.1918 7.65649H96.7783V32.1094H94.1918V7.65649Z" fill="white"/>
<path d="M103.624 30.6616C102.457 29.5095 101.877 27.9784 101.877 26.0683V21.0737C101.877 19.0743 102.457 17.4615 103.624 16.2351C104.791 15.0088 106.315 14.3993 108.202 14.3993H111.064C112.855 14.3993 114.297 14.8973 115.397 15.9007C116.49 16.904 117.04 18.2196 117.04 19.8473H114.594C114.594 18.8885 114.275 18.1155 113.635 17.5209C112.996 16.9263 112.142 16.629 111.071 16.629H108.21C107.065 16.629 106.151 17.0378 105.452 17.848C104.754 18.6655 104.404 19.7358 104.404 21.0588V26.0534C104.404 27.2872 104.761 28.2757 105.467 29.019C106.181 29.7622 107.102 30.1339 108.247 30.1339H111.108C112.201 30.1339 113.085 29.7474 113.747 28.9818C114.408 28.2163 114.743 27.1906 114.743 25.9048H117.188C117.188 27.8372 116.631 29.398 115.508 30.5872C114.386 31.7764 112.922 32.371 111.108 32.371H108.247C106.337 32.371 104.798 31.7913 103.639 30.6393L103.624 30.6616Z" fill="white"/>
<path d="M122.385 30.6616C121.196 29.5095 120.601 27.9784 120.601 26.0683V21.0737C120.601 19.0743 121.196 17.4615 122.385 16.2351C123.574 15.0088 125.143 14.3993 127.097 14.3993H129.959C131.824 14.3993 133.326 14.9939 134.463 16.1831C135.6 17.3723 136.172 18.9405 136.172 20.8953V23.9723H123.106V26.0683C123.106 27.2798 123.47 28.2609 124.206 29.019C124.942 29.7771 125.901 30.1561 127.09 30.1561H129.743C130.91 30.1561 131.854 29.8366 132.575 29.1974C133.296 28.5582 133.66 27.7034 133.66 26.6332H136.105C136.105 28.3575 135.526 29.7474 134.359 30.8102C133.192 31.8731 131.661 32.4008 129.751 32.4008H127.097C125.143 32.4008 123.567 31.821 122.385 30.669V30.6616ZM133.668 21.8095V20.9027C133.668 19.6243 133.333 18.5912 132.657 17.8108C131.98 17.0304 131.089 16.6439 129.966 16.6439H127.105C125.916 16.6439 124.957 17.0527 124.221 17.8628C123.485 18.6804 123.121 19.7507 123.121 21.0737V21.8095H133.668Z" fill="white"/>
<path d="M143.254 30.9205C142.452 30.1326 142.05 28.8245 142.05 27.011V16.9177H138.973V14.6805H142.05V9.40344H144.562V14.6805H149.104V16.9177H144.562V27.011C144.562 28.0367 144.763 28.7725 145.172 29.211C145.581 29.6569 146.257 29.8725 147.216 29.8725H149.104V32.1097H147.216C145.373 32.1097 144.057 31.7157 143.254 30.9205Z" fill="white"/>
<path d="M154.24 30.6616C153.051 29.5095 152.456 27.9784 152.456 26.0683V21.0737C152.456 19.0743 153.051 17.4615 154.24 16.2351C155.429 15.0088 156.998 14.3993 158.952 14.3993H161.814C163.68 14.3993 165.181 14.9939 166.318 16.1831C167.455 17.3723 168.028 18.9405 168.028 20.8953V23.9723H154.961V26.0683C154.961 27.2798 155.325 28.2609 156.061 29.019C156.797 29.7771 157.756 30.1561 158.945 30.1561H161.598C162.765 30.1561 163.709 29.8366 164.43 29.1974C165.151 28.5582 165.515 27.7034 165.515 26.6332H167.961C167.961 28.3575 167.381 29.7474 166.214 30.8102C165.047 31.8731 163.516 32.4008 161.606 32.4008H158.952C156.998 32.4008 155.422 31.821 154.24 30.669V30.6616ZM165.523 21.8095V20.9027C165.523 19.6243 165.188 18.5912 164.512 17.8108C163.836 17.0304 162.944 16.6439 161.821 16.6439H158.96C157.771 16.6439 156.812 17.0527 156.076 17.8628C155.34 18.6804 154.976 19.7507 154.976 21.0737V21.8095H165.523Z" fill="white"/>
<path d="M173.394 31.0629C172.383 30.1784 171.877 28.9892 171.877 27.5028V26.3879C171.877 24.9237 172.405 23.7419 173.446 22.8575C174.494 21.973 175.876 21.527 177.6 21.527H179.838C180.603 21.527 181.398 21.646 182.216 21.8764C183.034 22.1068 183.732 22.4264 184.312 22.8203V19.9216C184.312 18.9405 184.007 18.1453 183.405 17.5284C182.803 16.9115 181.993 16.5993 180.997 16.5993H178.202C177.199 16.5993 176.396 16.8297 175.794 17.298C175.185 17.7662 174.888 18.3831 174.888 19.1486H172.375C172.375 17.729 172.91 16.5844 173.981 15.7074C175.051 14.8378 176.463 14.3993 178.21 14.3993H181.004C182.729 14.3993 184.119 14.9047 185.182 15.9155C186.244 16.9263 186.772 18.2642 186.772 19.9142V32.1035H184.394V29.6582C183.859 30.498 183.152 31.1595 182.283 31.6501C181.413 32.1406 180.506 32.3859 179.577 32.3859H177.481C175.779 32.3859 174.427 31.9474 173.408 31.0555L173.394 31.0629ZM179.629 30.1933C180.722 30.1933 181.703 29.8588 182.565 29.1825C183.427 28.5061 184.007 27.6068 184.312 26.4919V25.1987C183.844 24.7602 183.197 24.4034 182.372 24.1358C181.547 23.8683 180.7 23.7345 179.838 23.7345H177.6C176.642 23.7345 175.869 23.9798 175.274 24.4703C174.679 24.9608 174.382 25.6 174.382 26.3879V27.5028C174.382 28.3203 174.665 28.967 175.222 29.4575C175.779 29.948 176.523 30.1933 177.459 30.1933H179.622H179.629Z" fill="white"/>
<path d="M93.5086 66.6404C92.0667 65.2059 91.3458 63.214 91.3458 60.6498H96.0951C96.0951 61.8613 96.4073 62.8127 97.0242 63.4964C97.6411 64.1802 98.4958 64.5296 99.5884 64.5296H103.468C104.494 64.5296 105.326 64.314 105.965 63.8829C106.605 63.4519 106.924 62.8796 106.924 62.1512V60.962C106.924 59.8174 106.084 59.1113 104.412 58.8288L97.983 57.7437C95.887 57.3944 94.2965 56.7255 93.2113 55.7369C92.1262 54.7484 91.5836 53.4849 91.5836 51.9464V49.9916C91.5836 48.7578 91.9181 47.6727 92.5796 46.7288C93.241 45.7848 94.185 45.0565 95.4113 44.5436C96.6377 44.0308 98.0499 43.7781 99.6553 43.7781H103.602C105.118 43.7781 106.456 44.0902 107.615 44.722C108.782 45.3538 109.682 46.2308 110.321 47.3605C110.96 48.4903 111.28 49.7984 111.28 51.2923H106.53C106.53 50.3112 106.263 49.5308 105.728 48.9362C105.192 48.3416 104.479 48.0443 103.594 48.0443H99.6478C98.6668 48.0443 97.8863 48.2524 97.2917 48.6761C96.6971 49.0923 96.3998 49.6572 96.3998 50.3558V51.2997C96.3998 52.4666 97.2026 53.1876 98.808 53.4626L105.2 54.5775C107.318 54.9491 108.938 55.6106 110.053 56.5545C111.168 57.4984 111.733 58.7174 111.733 60.2039V62.5079C111.733 63.7417 111.391 64.8343 110.7 65.7931C110.016 66.7519 109.05 67.4877 107.816 68.008C106.582 68.5357 105.148 68.7958 103.52 68.7958H99.5066C96.9424 68.7958 94.9431 68.0823 93.5012 66.6478L93.5086 66.6404Z" fill="white"/>
<path d="M117.805 67.9324C116.675 67.3601 115.798 66.55 115.188 65.502C114.572 64.454 114.259 63.2425 114.259 61.8675V57.7796C114.259 56.4046 114.572 55.1857 115.203 54.1303C115.835 53.0674 116.712 52.2499 117.842 51.6701C118.972 51.0904 120.272 50.8005 121.736 50.8005H124.88C126.345 50.8005 127.645 51.0904 128.775 51.6701C129.905 52.2499 130.782 53.0749 131.414 54.1303C132.045 55.1931 132.357 56.4046 132.357 57.7796V61.8675C132.357 63.2425 132.045 64.454 131.414 65.502C130.782 66.55 129.905 67.3601 128.775 67.9324C127.645 68.5047 126.337 68.7871 124.843 68.7871H121.699C120.235 68.7871 118.934 68.5047 117.805 67.9324ZM124.769 64.6993C125.631 64.6993 126.315 64.402 126.828 63.8074C127.341 63.2128 127.593 62.4398 127.593 61.4884V58.0992C127.593 57.1479 127.333 56.3675 126.828 55.7729C126.315 55.1783 125.638 54.881 124.799 54.881H121.796C120.956 54.881 120.28 55.1783 119.767 55.7729C119.254 56.3675 119.001 57.1404 119.001 58.0992V61.4884C119.001 62.4472 119.254 63.2202 119.767 63.8074C120.28 64.402 120.941 64.6993 121.759 64.6993H124.761H124.769Z" fill="white"/>
<path d="M137.1 55.1263H134.097V51.0756H137.1V49.9235C137.1 48.0357 137.702 46.564 138.898 45.5012C140.095 44.4384 141.767 43.9106 143.908 43.9106H146.42V47.9613H143.975C143.231 47.9613 142.689 48.1249 142.347 48.4519C142.013 48.7789 141.842 49.2918 141.842 49.9904V51.0756H146.033V55.1263H141.842V68.5047H137.092V55.1263H137.1Z" fill="white"/>
<path d="M151.838 67.1079C150.88 66.1788 150.404 64.7295 150.404 62.7747V55.1267H147.327V51.076H150.538V45.799H155.146V51.076H159.687V55.1267H155.146V62.5666C155.146 63.2207 155.265 63.6964 155.51 64.0011C155.755 64.3058 156.142 64.4545 156.677 64.4545H159.68V68.5052H156.328C154.276 68.5052 152.775 68.0369 151.824 67.1079H151.838Z" fill="white"/>
<path d="M165.046 65.7847L161.516 51.0758H166.443L168.576 62.1502H168.643L172.449 51.4995H174.299C174.835 51.4995 175.266 51.6184 175.593 51.8488C175.92 52.0792 176.172 52.4434 176.358 52.9339L179.606 62.1576H179.673L181.769 51.0832H186.697L183.241 65.7921C182.824 67.6056 181.821 68.5198 180.238 68.5198H178.075L174.195 57.4826L170.182 68.5198H168.049C166.488 68.5198 165.484 67.6131 165.046 65.7921V65.7847Z" fill="white"/>
<path d="M189.915 67.4196C188.8 66.5128 188.235 65.3162 188.235 63.8222V62.529C188.235 61.0648 188.815 59.883 189.982 58.9837C191.149 58.0844 192.68 57.6384 194.59 57.6384H196.723C197.325 57.6384 197.979 57.7202 198.678 57.8837C199.377 58.0472 200.016 58.2702 200.596 58.5452V56.7317C200.596 56.1519 200.402 55.6762 200.016 55.3195C199.629 54.9553 199.124 54.7769 198.5 54.7769H195.497C194.843 54.7769 194.323 54.9256 193.929 55.2303C193.535 55.535 193.334 55.9438 193.334 56.4567H188.726C188.726 54.7546 189.35 53.387 190.592 52.3539C191.84 51.3208 193.475 50.8005 195.497 50.8005H198.5C200.551 50.8005 202.201 51.3431 203.457 52.4208C204.713 53.506 205.345 54.9404 205.345 56.7317V68.5047H200.945V66.4087C200.388 67.1297 199.696 67.7094 198.886 68.1405C198.069 68.5716 197.266 68.7871 196.478 68.7871H194.315C192.502 68.7871 191.03 68.3338 189.915 67.427V67.4196ZM196.835 65.1527C197.697 65.1527 198.463 64.9297 199.139 64.4912C199.815 64.0527 200.306 63.4581 200.603 62.7074V62.1128C200.231 61.8303 199.711 61.6148 199.05 61.4513C198.388 61.2878 197.682 61.206 196.939 61.206H194.739C194.181 61.206 193.728 61.3472 193.379 61.6222C193.029 61.9047 192.851 62.2763 192.851 62.7371V63.6439C192.851 64.0898 193.044 64.4466 193.431 64.729C193.817 65.0114 194.323 65.1452 194.947 65.1452H196.835V65.1527Z" fill="white"/>
<path d="M209.195 51.0751H213.595V53.3122C214.034 52.6359 214.673 52.0859 215.498 51.6548C216.323 51.2237 217.193 51.0082 218.099 51.0082H220.478V55.1332H218.099C216.866 55.1332 215.862 55.5048 215.097 56.2481C214.331 56.9913 213.945 57.9501 213.945 59.1096V68.5042H209.195V51.0751Z" fill="white"/>
<path d="M224.901 67.9621C223.771 67.4121 222.894 66.6466 222.262 65.6581C221.63 64.6695 221.318 63.5324 221.318 62.254V57.7499C221.318 56.3749 221.63 55.1634 222.262 54.1154C222.894 53.0674 223.771 52.2499 224.901 51.6701C226.03 51.0904 227.331 50.8005 228.795 50.8005H231.59C233.827 50.8005 235.618 51.4323 236.971 52.6884C238.324 53.9445 239 55.6242 239 57.7202V61.4216H226.075V62.2614C226.075 63.027 226.32 63.6513 226.811 64.1121C227.301 64.5804 227.963 64.8108 228.803 64.8108H231.53C232.348 64.8108 233.002 64.6324 233.507 64.2682C234.005 63.904 234.258 63.4358 234.258 62.856H238.94C238.94 64.0229 238.628 65.056 237.997 65.9628C237.365 66.8696 236.488 67.5682 235.358 68.0588C234.228 68.5493 232.928 68.7946 231.463 68.7946H228.81C227.346 68.7946 226.045 68.5196 224.915 67.977L224.901 67.9621ZM234.31 57.9952V57.7127C234.31 56.806 234.065 56.0776 233.574 55.5276C233.084 54.9776 232.43 54.71 231.619 54.71H228.788C227.948 54.71 227.271 54.9999 226.759 55.5796C226.246 56.1594 225.993 56.9323 225.993 57.8837V57.9877H234.31V57.9952Z" fill="white"/>
<path d="M10.5847 29.2458L0 39.8304L10.5847 50.4151L21.1694 39.8304L10.5847 29.2458Z" fill="white"/>
<path d="M68.6876 29.2501L58.1029 39.8348L68.6876 50.4195L79.2723 39.8348L68.6876 29.2501Z" fill="white"/>
<path d="M36.1031 24.9701L39.9835 21.116L54.6246 35.6577L65.251 25.1035L39.9835 0L14.716 25.0961L22.044 32.3744L43.8714 54.0833L39.9835 57.9448L25.3499 43.4104L14.7086 53.9498L39.991 79.0533L65.2659 53.9424L36.1105 24.9701H36.1031ZM39.9835 71.7157L22.0963 53.9573L25.3424 50.7406L39.9835 65.2824L51.2591 54.0833L29.4392 32.3892L22.0963 25.0961L39.976 7.33759L57.8558 25.1035L54.6172 28.3201L39.976 13.7784L28.7079 24.9701L57.8707 53.9424L39.9835 71.7157Z" fill="white"/>
</svg>
