<svg width="24" height="24" viewBox="0 0 24 24" fill="none" xmlns="http://www.w3.org/2000/svg">
<path d="M11.9955 0.84375C5.37139 0.84375 0 5.10527 0 10.3642C0 13.7643 2.24409 16.7428 5.62373 18.4338L4.40706 22.8087C4.40706 22.8087 4.38453 23.0127 4.51521 23.0898C4.64589 23.1669 4.80361 23.1079 4.80361 23.1079C5.18213 23.0535 9.17461 20.2291 9.87308 19.7395C10.5625 19.8392 11.279 19.8891 12.0045 19.8891C18.6286 19.8891 24 15.6276 24 10.3687C24 5.1098 18.6196 0.84375 11.9955 0.84375Z" fill="#2250B5"/>
<path d="M5.36238 13.6828C4.97935 13.6828 4.66843 13.3836 4.66843 13.0164V8.87729H3.58694C3.21293 8.87729 2.91101 8.57354 2.91101 8.19726C2.91101 7.82098 3.21743 7.51723 3.58694 7.51723H7.13332C7.50733 7.51723 7.80925 7.82098 7.80925 8.19726C7.80925 8.57354 7.50282 8.87729 7.13332 8.87729H6.05183V13.0164C6.05183 13.3791 5.7364 13.6828 5.35787 13.6828H5.36238ZM11.4322 13.6738C11.1438 13.6738 10.923 13.5559 10.8554 13.3655L10.513 12.4588H8.40406L8.06159 13.3655C7.994 13.5559 7.7732 13.6738 7.4848 13.6738C7.33159 13.6738 7.18288 13.642 7.04319 13.5831C6.85393 13.4924 6.66918 13.2521 6.88097 12.5948L8.53474 8.21086C8.6519 7.87538 9.00789 7.53083 9.45851 7.52176C9.90913 7.5127 10.2696 7.87538 10.3823 8.21086L12.0361 12.5948C12.2478 13.2521 12.0631 13.5015 11.8738 13.5831C11.7386 13.6466 11.5854 13.6738 11.4322 13.6738ZM10.148 11.2257L9.45851 9.24904L8.76907 11.2257H10.148ZM13.1491 13.5831C12.7886 13.5831 12.4867 13.2975 12.4867 12.9484V8.21086C12.4867 7.82551 12.8021 7.5127 13.1941 7.5127C13.5862 7.5127 13.9016 7.83004 13.9016 8.21086V12.3001H15.3706C15.7311 12.3001 16.0331 12.5857 16.0331 12.9348C16.0331 13.2839 15.7356 13.5695 15.3706 13.5695L13.1491 13.5831ZM16.2989 12.9756V8.21539C16.2989 7.83004 16.6144 7.51723 16.9929 7.51723C17.3714 7.51723 17.6868 7.83458 17.6868 8.21539V9.71146L19.6245 7.76204C19.8378 7.54745 20.241 7.56626 20.4852 7.81191C20.7145 8.04266 20.7742 8.43269 20.5347 8.67781L18.9486 10.2645L20.6519 12.5313C20.8808 12.8261 20.8252 13.2851 20.5167 13.5015C20.2125 13.7282 19.7657 13.6526 19.5479 13.3655L17.9257 11.203L17.6868 11.4433V12.962C17.6868 13.8666 16.2989 13.9015 16.2989 12.9756Z" fill="white"/>
</svg>
