<svg width="37" height="40" viewBox="0 0 37 40" fill="none" xmlns="http://www.w3.org/2000/svg">
<path fill-rule="evenodd" clip-rule="evenodd" d="M22.7916 3.27938L36.8863 14.0947H36.8864V39.2854H22.7916L22.7916 3.27938ZM20.3925 1.43846L18.5178 0L6.89767 8.84464V11.1658C6.89743 11.8812 6.61304 12.5673 6.10706 13.073L4.99054 14.1714C4.85088 14.3095 4.74003 14.474 4.6644 14.6553C4.58878 14.8366 4.54988 15.0311 4.54996 15.2276V17.3882C4.54996 17.4196 4.5475 17.4508 4.54269 17.4815C5.26988 17.7296 5.79287 18.4187 5.79287 19.2298C5.79287 20.2498 4.96604 21.0766 3.94609 21.0766C2.92614 21.0766 2.0993 20.2498 2.0993 19.2298C2.0993 18.4184 2.62262 17.7292 3.35015 17.4813C3.34537 17.4507 3.34292 17.4196 3.34292 17.3882V15.2276C3.34046 14.874 3.40799 14.5235 3.54161 14.1962C3.67523 13.8689 3.8723 13.5712 4.12146 13.3204L5.25609 12.1798C5.53281 11.9001 5.68883 11.5231 5.69062 11.1296V9.76338L6.0992e-05 14.0947H0V14.0948V14.0948V39.2854H12.8952V32.7389C12.8952 32.6459 12.9321 32.5566 12.9979 32.4908C13.0637 32.425 13.1529 32.3881 13.246 32.3881C13.339 32.3881 13.4283 32.425 13.4941 32.4908C13.5598 32.5566 13.5968 32.6459 13.5968 32.7389V39.2854H14.4321V36.0928C14.4321 35.9998 14.469 35.9105 14.5348 35.8447C14.6006 35.7789 14.6898 35.742 14.7829 35.742C14.8759 35.742 14.9651 35.7789 15.0309 35.8447C15.0967 35.9105 15.1337 35.9998 15.1337 36.0928V39.2854H16.0845V34.3451C16.0845 34.2521 16.1214 34.1628 16.1872 34.097C16.253 34.0312 16.3423 33.9943 16.4353 33.9943C16.5283 33.9943 16.6176 34.0312 16.6834 34.097C16.7492 34.1628 16.7861 34.2521 16.7861 34.3451V39.2854H17.7367V36.0928C17.7367 35.9998 17.7737 35.9105 17.8395 35.8447C17.9053 35.7789 17.9945 35.742 18.0876 35.742C18.1806 35.742 18.2698 35.7789 18.3356 35.8447C18.4014 35.9105 18.4384 35.9998 18.4384 36.0928V39.2854H20.3925V20.8502H18.7894C18.1016 20.8502 17.4419 20.5774 16.955 20.0916C16.4681 19.6058 16.1938 18.9467 16.1923 18.2589V15.6036C16.1923 15.555 16.1984 15.5071 16.2101 15.4607C15.5038 15.2254 14.9945 14.559 14.9945 13.7736C14.9945 12.7917 15.7905 11.9957 16.7724 11.9957C17.7543 11.9957 18.5503 12.7917 18.5503 13.7736C18.5503 14.5584 18.0418 15.2244 17.3363 15.4602C17.3482 15.5067 17.3543 15.5549 17.3543 15.6036V18.2589C17.3543 18.6395 17.5055 19.0045 17.7746 19.2737C18.0438 19.5428 18.4088 19.694 18.7894 19.694L20.3925 19.6882V1.43846ZM31.783 24.0049C32.6159 23.7011 33.2105 22.9021 33.2105 21.9642C33.2105 20.7649 32.2382 19.7926 31.0389 19.7926C29.8396 19.7926 28.8674 20.7649 28.8674 21.9642C28.8674 22.9821 29.5677 23.8364 30.5129 24.0716V29.4164H28.7855C28.617 29.4164 28.4555 29.4834 28.3364 29.6025C28.2173 29.7216 28.1504 29.8831 28.1504 30.0515V39.2221H29.4206V30.6866H31.148C31.3164 30.6866 31.4779 30.6197 31.597 30.5006C31.7161 30.3815 31.783 30.22 31.783 30.0515V24.0049ZM8.89905 23.391C7.85108 23.391 7.00153 24.2405 7.00153 25.2885C7.00153 26.0629 7.46545 26.729 8.13053 27.0239C8.11708 27.075 8.1101 27.128 8.1101 27.1818V29.4017C8.11019 29.6036 8.07022 29.8034 7.99252 29.9897C7.91481 30.176 7.80092 30.345 7.65743 30.4869L6.51023 31.6155C5.99035 32.1351 5.69815 32.84 5.6979 33.575V39.156L6.93811 39.1932V33.6123C6.93995 33.208 7.10025 32.8206 7.38458 32.5333L8.55037 31.3613C8.80638 31.1036 9.00887 30.7978 9.14616 30.4615C9.28345 30.1251 9.35283 29.765 9.35031 29.4017V27.1818C9.35031 27.1653 9.34965 27.1488 9.34835 27.1325C10.1795 26.9307 10.7966 26.1817 10.7966 25.2885C10.7966 24.2405 9.94702 23.391 8.89905 23.391Z" fill="white"/>
</svg>
